<svg xmlns="http://www.w3.org/2000/svg" width="24" height="24" viewBox="0 0 24 24">
  <defs>
    <style>
      .cls-1 {
        fill: #00b21e;
      }

      .cls-2 {
        fill: #fff;
      }

      .cls-3 {
        fill: none;
      }

      .cls-4, .cls-5 {
        stroke: none;
      }

      .cls-5 {
        fill: #00b21e;
      }
    </style>
  </defs>
  <g id="Group_2348" data-name="Group 2348" transform="translate(-1112 -76)">
    <g id="Active" transform="translate(1141 80)">
      <rect id="Rectangle_225" data-name="Rectangle 225" class="cls-1" width="16" height="16" rx="8" transform="translate(-25)"/>
      <g id="Path_1269" data-name="Path 1269" class="cls-2" transform="translate(-26 -3.4)">
        <path class="cls-4" d="M 8.755329132080078 15.65000152587891 C 8.407428741455078 15.65000152587891 8.081608772277832 15.50043201446533 7.837888717651367 15.22886180877686 L 4.131788730621338 11.117431640625 C 3.733818769454956 10.67404174804688 3.640068769454956 10.08768177032471 3.880628824234009 9.548521995544434 C 4.106928825378418 9.041312217712402 4.585338592529297 8.700531959533691 5.071098804473877 8.700531959533691 C 5.301708698272705 8.700531959533691 5.644218921661377 8.775881767272949 5.966328620910645 9.134821891784668 L 8.748741149902344 12.22143173217773 L 15.02621841430664 5.188041687011719 C 15.34934902191162 4.826001644134521 15.69371891021729 4.750001907348633 15.92571926116943 4.750001907348633 C 16.41196823120117 4.750001907348633 16.89125823974609 5.09071159362793 17.11836814880371 5.597821712493896 C 17.35982894897461 6.136971950531006 17.26701927185059 6.72435188293457 16.87009811401367 7.169071674346924 L 9.675229072570801 15.22611141204834 C 9.431378364562988 15.49943161010742 9.104659080505371 15.65000152587891 8.755329132080078 15.65000152587891 Z"/>
        <path class="cls-5" d="M 8.755328178405762 15.40000057220459 C 9.020857810974121 15.40000057220459 9.286364555358887 15.28644371032715 9.48875904083252 15.05959224700928 L 16.68357849121094 7.002601623535156 C 17.65110778808594 5.918551921844482 16.18026733398438 4.270459651947021 15.21273899078369 5.354511737823486 L 8.749669075012207 12.59584140777588 L 5.780258655548096 9.301792144775391 C 4.812909603118896 8.223811149597168 3.349968671798706 9.872092247009277 4.317478656768799 10.95004177093506 L 8.023948669433594 15.06188201904297 C 8.226317405700684 15.28738021850586 8.49083423614502 15.40000057220459 8.755328178405762 15.40000057220459 M 8.755329132080078 15.90000152587891 C 8.335489273071289 15.90000152587891 7.943598747253418 15.72095203399658 7.651828765869141 15.39583206176758 L 3.946088790893555 11.28481197357178 C 3.479928731918335 10.76544189453125 3.370368719100952 10.07857131958008 3.652318716049194 9.446661949157715 C 3.922308921813965 8.841531753540039 4.479208946228027 8.450531959533691 5.071098804473877 8.450531959533691 C 5.352598667144775 8.450531959533691 5.768698692321777 8.540282249450684 6.152389049530029 8.967851638793945 L 8.747817993164062 11.84702682495117 L 14.83970928192139 5.021571636199951 C 15.22446918487549 4.590491771697998 15.64265918731689 4.500001907348633 15.92571926116943 4.500001907348633 C 16.51795959472656 4.500001907348633 17.07565879821777 4.890811920166016 17.34652900695801 5.495631694793701 C 17.62944793701172 6.127331733703613 17.52105903625488 6.815151691436768 17.05660820007324 7.335541725158691 L 9.861699104309082 15.39263153076172 C 9.569849014282227 15.71975135803223 9.176878929138184 15.90000152587891 8.755329132080078 15.90000152587891 Z"/>
      </g>
    </g>
    <rect id="Rectangle_1154" data-name="Rectangle 1154" class="cls-3" width="24" height="24" transform="translate(1112 76)"/>
  </g>
</svg>
