<svg version="1.1" id="Layer_1" xmlns="http://www.w3.org/2000/svg" x="0" y="0" viewBox="0 0 16.5 16" xml:space="preserve"><style>.st0{fill:#00b21e}</style><g id="Group_2348" transform="translate(-1112 -76)"><g id="Active" transform="translate(1141 80)"><path id="Rectangle_225" class="st0" d="M-21-4c4.4 0 8 3.6 8 8s-3.6 8-8 8-8-3.6-8-8 3.6-8 8-8z"/><g id="Path_1269"><path d="M4.8 11.7c-.3 0-.7-.1-.9-.4L.1 7.1c-.4-.4-.5-1-.3-1.6.3-.5.8-.8 1.3-.8.2 0 .6.1.9.4l2.8 3.1 6.3-7c.3-.4.7-.4.9-.4.5 0 1 .3 1.2.8.2.5.1 1.1-.2 1.6l-7.2 8.1c-.4.2-.7.4-1 .4z" fill="#fff" transform="translate(-26 -3.4)"/><path class="st0" d="M4.8 11.4c.3 0 .5-.1.7-.3L12.7 3c1-1.1-.5-2.7-1.5-1.6L4.7 8.6l-3-3.3C.8 4.2-.7 5.9.3 7L4 11.1c.2.2.5.3.8.3m0 .5c-.4 0-.8-.2-1.1-.5L0 7.3c-.5-.5-.6-1.2-.3-1.8.3-.6.8-1 1.4-1 .3 0 .7.1 1.1.5l2.6 2.9 6-6.9c.4-.4.8-.5 1.1-.5.6 0 1.1.4 1.4 1 .3.6.2 1.3-.3 1.8l-7.2 8.1c-.2.3-.6.5-1 .5z" transform="translate(-26 -3.4)"/></g></g></g></svg>