<svg id="Component_140_1" data-name="Component 140 – 1" xmlns="http://www.w3.org/2000/svg" width="24" height="24" viewBox="0 0 24 24">
  <g id="Group_2331" data-name="Group 2331" transform="translate(-997 -232.535)">
    <g id="Active" transform="translate(1001.73 238)">
      <rect id="Rectangle_225" data-name="Rectangle 225" width="16" height="16" rx="8" transform="translate(-0.731 -1)" fill="#ffd54d"/>
    </g>
    <g id="warning-sign" transform="translate(822.943 235.536)">
      <path id="Path_2861" data-name="Path 2861" d="M186.057,11.782a1.09,1.09,0,0,0,1.086-1l.737-8.8a1.83,1.83,0,1,0-3.646,0l.737,8.8A1.09,1.09,0,0,0,186.057,11.782Z" fill="#fff" stroke="#ffd54d" stroke-width="0.5"/>
      <path id="Path_2862" data-name="Path 2862" d="M206.641,410.908a1.188,1.188,0,1,0,1.188,1.188A1.187,1.187,0,0,0,206.641,410.908Z" transform="translate(-20.584 -398.478)" fill="#fff" stroke="#ffd54d" stroke-width="0.5"/>
    </g>
  </g>
  <rect id="Rectangle_1156" data-name="Rectangle 1156" width="24" height="24" fill="none"/>
</svg>
