<svg xmlns="http://www.w3.org/2000/svg" viewBox="0 0 16.5 16"><style>.st0{fill:#00b21e}</style><path class="st0" d="M8 0c4.4 0 8 3.6 8 8s-3.6 8-8 8-8-3.6-8-8 3.6-8 8-8z"/><path d="M7.8 12.3c-.3 0-.7-.1-.9-.4L3.1 7.7c-.4-.4-.5-1-.3-1.6.3-.5.8-.8 1.3-.8.2 0 .6.1.9.4l2.8 3.1 6.3-7c.3-.4.7-.4.9-.4.5 0 1 .3 1.2.8.2.5.1 1.1-.2 1.6l-7.2 8.1c-.4.2-.7.4-1 .4z" fill="#fff"/><path class="st0" d="M7.8 12c.3 0 .5-.1.7-.3l7.2-8.1c1-1.1-.5-2.7-1.5-1.6L7.7 9.2l-3-3.3c-.9-1.1-2.4.6-1.4 1.7L7 11.7c.2.2.5.3.8.3m0 .5c-.4 0-.8-.2-1.1-.5L3 7.9c-.5-.5-.6-1.2-.3-1.8.3-.6.8-1 1.4-1 .3 0 .7.1 1.1.5l2.6 2.9 6-6.9c.4-.4.8-.5 1.1-.5.6 0 1.1.4 1.4 1 .3.6.2 1.3-.3 1.8L8.8 12c-.2.3-.6.5-1 .5z"/></svg>