<svg id="Component_141_1" data-name="Component 141 – 1" xmlns="http://www.w3.org/2000/svg" width="24" height="24"
  viewBox="0 0 24 24">
  <g id="Group_2336" data-name="Group 2336" transform="translate(-1571.999 -3508)">
    <g id="Active" transform="translate(1576.73 3513)">
      <rect id="Rectangle_225" data-name="Rectangle 225" width="16" height="16" rx="8" transform="translate(-0.731 -1)"
        fill="#ef2828" />
    </g>
    <g id="Union_2" data-name="Union 2" transform="translate(2099.098 12185.208)" fill="#fff" stroke-linecap="round">
      <path
        d="M -515.9923706054688 -8660.505859375 C -516.2274780273438 -8660.505859375 -516.4578247070312 -8660.5947265625 -516.640869140625 -8660.7548828125 C -517.0392456054688 -8661.1044921875 -517.1016235351562 -8661.6943359375 -516.780029296875 -8662.0693359375 L -513.3967895507812 -8666 L -513.2487182617188 -8666.171875 L -513.4056396484375 -8666.3359375 L -516.9857788085938 -8670.0771484375 C -517.3399658203125 -8670.4482421875 -517.3177490234375 -8671.0537109375 -516.93603515625 -8671.42578125 C -516.7520751953125 -8671.6044921875 -516.5122680664062 -8671.703125 -516.2608032226562 -8671.703125 C -516.0095825195312 -8671.703125 -515.7769165039062 -8671.6044921875 -515.605712890625 -8671.42578125 L -512.1741943359375 -8667.83984375 L -511.9838256835938 -8667.640625 L -511.8041381835938 -8667.849609375 L -508.560791015625 -8671.6162109375 C -508.3975830078125 -8671.8056640625 -508.1652221679688 -8671.91015625 -507.9064636230469 -8671.91015625 C -507.6719360351562 -8671.91015625 -507.4417114257812 -8671.8212890625 -507.2581481933594 -8671.6611328125 C -506.8603820800781 -8671.3125 -506.7980346679688 -8670.7216796875 -507.1195983886719 -8670.345703125 L -510.5015258789062 -8666.41796875 L -510.6495971679688 -8666.24609375 L -510.4927062988281 -8666.08203125 L -506.9137878417969 -8662.341796875 C -506.5598754882812 -8661.970703125 -506.5820922851562 -8661.365234375 -506.963623046875 -8660.9931640625 C -507.1482238769531 -8660.814453125 -507.3885803222656 -8660.7158203125 -507.639892578125 -8660.7158203125 C -507.8904724121094 -8660.7158203125 -508.1226196289062 -8660.814453125 -508.2936401367188 -8660.9931640625 L -511.7239685058594 -8664.578125 L -511.9143981933594 -8664.77734375 L -512.0940551757812 -8664.568359375 L -515.3387451171875 -8660.798828125 C -515.5017700195312 -8660.6103515625 -515.7340087890625 -8660.505859375 -515.9923706054688 -8660.505859375 Z"
        stroke="none" />
      <path
        d="M -515.9923706054688 -8660.755859375 C -515.8078002929688 -8660.755859375 -515.642822265625 -8660.8291015625 -515.5282592773438 -8660.9619140625 L -511.9241638183594 -8665.1494140625 L -511.5433349609375 -8664.7509765625 L -508.1128540039062 -8661.166015625 C -507.989501953125 -8661.0361328125 -507.821533203125 -8660.9658203125 -507.639892578125 -8660.9658203125 C -507.4539184570312 -8660.9658203125 -507.275390625 -8661.0390625 -507.13818359375 -8661.171875 C -506.8542175292969 -8661.44921875 -506.8348388671875 -8661.896484375 -507.0944213867188 -8662.1689453125 L -510.9871215820312 -8666.2373046875 L -507.3096008300781 -8670.5087890625 C -507.0764770507812 -8670.78125 -507.1275939941406 -8671.2138671875 -507.4226684570312 -8671.47265625 C -507.5606384277344 -8671.59375 -507.7324829101562 -8671.66015625 -507.9064636230469 -8671.66015625 C -508.0912780761719 -8671.66015625 -508.2563781738281 -8671.5869140625 -508.371337890625 -8671.453125 L -511.9740600585938 -8667.26953125 L -512.3548583984375 -8667.6669921875 L -515.7863159179688 -8671.2529296875 C -515.909912109375 -8671.3818359375 -516.0784301757812 -8671.453125 -516.2608032226562 -8671.453125 C -516.44677734375 -8671.453125 -516.6246337890625 -8671.3798828125 -516.7615966796875 -8671.24609375 C -517.045654296875 -8670.9697265625 -517.0648803710938 -8670.5224609375 -516.8051147460938 -8670.25 L -512.9111938476562 -8666.1806640625 L -516.5902099609375 -8661.9072265625 C -516.8231811523438 -8661.6357421875 -516.7719116210938 -8661.203125 -516.4758911132812 -8660.943359375 C -516.3384399414062 -8660.822265625 -516.166748046875 -8660.755859375 -515.9923706054688 -8660.755859375 M -515.9923706054688 -8660.255859375 C -516.27685546875 -8660.255859375 -516.5679321289062 -8660.3583984375 -516.8058471679688 -8660.5673828125 C -517.3087768554688 -8661.0087890625 -517.380859375 -8661.7529296875 -516.9698486328125 -8662.232421875 L -513.5862426757812 -8666.1630859375 L -517.1663818359375 -8669.904296875 C -517.6151733398438 -8670.375 -517.5917358398438 -8671.1357421875 -517.1104736328125 -8671.6044921875 C -516.6309814453125 -8672.0712890625 -515.8756713867188 -8672.0693359375 -515.4251098632812 -8671.5986328125 L -511.9935913085938 -8668.0126953125 L -508.7502136230469 -8671.779296875 C -508.3374328613281 -8672.2587890625 -507.5965881347656 -8672.2890625 -507.0936584472656 -8671.849609375 C -506.5907592773438 -8671.408203125 -506.5186462402344 -8670.6640625 -506.9296264648438 -8670.18359375 L -510.3120727539062 -8666.2548828125 L -506.733154296875 -8662.5146484375 C -506.2843322753906 -8662.0439453125 -506.3095397949219 -8661.2822265625 -506.7890319824219 -8660.814453125 C -507.2703247070312 -8660.34765625 -508.0237731933594 -8660.349609375 -508.4743957519531 -8660.8203125 L -511.9046020507812 -8664.4052734375 L -515.1492919921875 -8660.6357421875 C -515.3668212890625 -8660.3837890625 -515.6754760742188 -8660.255859375 -515.9923706054688 -8660.255859375 Z"
        stroke="none" fill="#ef2828" />
    </g>
  </g>
  <rect id="Rectangle_1157" data-name="Rectangle 1157" width="24" height="24" fill="none" />
</svg>