<svg version="1.1" id="Layer_2" xmlns="http://www.w3.org/2000/svg" x="0" y="0" viewBox="0 0 16.7 16" xml:space="preserve"><style>.st0{fill:#ef2828}</style><g id="Group_2336" transform="translate(-1571.999 -3508)"><g id="Active" transform="translate(1576.73 3513)"><path id="Rectangle_225" class="st0" d="M3.3-5c4.4 0 8 3.6 8 8s-3.6 8-8 8-8-3.6-8-8 3.6-8 8-8z"/></g><g id="Union_2"><path d="M-520-8664.5c-.2 0-.5-.1-.6-.2-.4-.3-.5-.9-.1-1.3l3.4-3.9.1-.2-.2-.2-3.6-3.7c-.4-.4-.3-1 0-1.3.2-.2.4-.3.7-.3.3 0 .5.1.7.3l3.4 3.6.2.2.2-.2 3.2-3.8c.2-.2.4-.3.7-.3.2 0 .5.1.6.2.4.3.5.9.1 1.3l-3.4 3.9-.1.2.2.2 3.6 3.7c.4.4.3 1 0 1.3-.2.2-.4.3-.7.3-.3 0-.5-.1-.7-.3l-3.4-3.6-.2-.2-.2.2-3.2 3.8c-.2.2-.4.3-.7.3z" fill="#fff" transform="translate(2099.098 12185.208)"/><path class="st0" d="M-520-8664.8c.2 0 .3-.1.5-.2l3.6-4.2.4.4 3.4 3.6c.1.1.3.2.5.2s.4-.1.5-.2c.3-.3.3-.7 0-1l-3.9-4.1 3.7-4.3c.2-.3.2-.7-.1-1-.1-.1-.3-.2-.5-.2s-.3.1-.5.2l-3.6 4.2-.4-.4-3.4-3.6c-.1-.1-.3-.2-.5-.2s-.4.1-.5.2c-.3.3-.3.7 0 1l3.9 4.1-3.7 4.3c-.2.3-.2.7.1 1 .2.2.3.2.5.2m0 .5c-.3 0-.6-.1-.8-.3-.5-.4-.6-1.2-.2-1.7l3.4-3.9-3.6-3.7c-.4-.5-.4-1.2.1-1.7s1.2-.5 1.7 0l3.4 3.6 3.2-3.8c.4-.5 1.2-.5 1.7-.1s.6 1.2.2 1.7l-3.4 3.9 3.6 3.7c.4.5.4 1.2-.1 1.7s-1.2.5-1.7 0l-3.4-3.6-3.2 3.8c-.3.3-.6.4-.9.4z" transform="translate(2099.098 12185.208)"/></g></g></svg>