<svg id="Component_139_1" data-name="Component 139 – 1" xmlns="http://www.w3.org/2000/svg" width="24" height="24" viewBox="0 0 24 24">
  <g id="Group_2347" data-name="Group 2347" transform="translate(-1578 -3424.355)">
    <g id="Active" transform="translate(1582.731 3430.232)">
      <rect id="Rectangle_225" data-name="Rectangle 225" width="16" height="16" rx="8" transform="translate(-0.731 -1)" fill="#009deb"/>
    </g>
    <g id="info" transform="translate(1555.854 3427.355)">
      <path id="Path_2860" data-name="Path 2860" d="M37.343,13.311l-.2.852q-.91.37-1.452.564a3.725,3.725,0,0,1-1.259.194,2.465,2.465,0,0,1-1.713-.554A1.817,1.817,0,0,1,32.1,12.96a5.128,5.128,0,0,1,.046-.677q.046-.346.148-.782l.758-2.767q.1-.4.171-.753a3.371,3.371,0,0,0,.069-.648,1.024,1.024,0,0,0-.212-.739,1.172,1.172,0,0,0-.811-.209,2.066,2.066,0,0,0-.6.095c-.206.063-.383.124-.531.18l.2-.853q.745-.313,1.426-.535a4.147,4.147,0,0,1,1.289-.223,2.4,2.4,0,0,1,1.688.545,1.835,1.835,0,0,1,.593,1.416c0,.12-.013.332-.041.635a4.364,4.364,0,0,1-.152.834l-.755,2.756a7.511,7.511,0,0,0-.166.759,4.023,4.023,0,0,0-.074.644.945.945,0,0,0,.238.749,1.311,1.311,0,0,0,.826.2,2.319,2.319,0,0,0,.624-.1A3.421,3.421,0,0,0,37.343,13.311Zm.191-11.569a1.635,1.635,0,0,1-.528,1.227,1.769,1.769,0,0,1-1.272.508,1.788,1.788,0,0,1-1.278-.508,1.631,1.631,0,0,1-.533-1.227A1.648,1.648,0,0,1,34.456.511a1.845,1.845,0,0,1,2.55,0A1.651,1.651,0,0,1,37.534,1.743Z" transform="translate(0 0)" fill="#fff" stroke="#009deb" stroke-width="0.5"/>
    </g>
  </g>
  <rect id="Rectangle_1155" data-name="Rectangle 1155" width="24" height="24" fill="none"/>
</svg>
