<svg xmlns="http://www.w3.org/2000/svg" viewBox="0 0 16 18.1" xml:space="preserve"><path d="M8.031 2.177c4.4 0 8 3.6 8 8s-3.6 8-8 8-8-3.6-8-8c0-4.5 3.6-8 8-8z" fill="#009deb"/><path d="m11.154 13.6-.2.9c-.6.2-1.1.4-1.5.6-.4.1-.8.2-1.3.2-.6 0-1.2-.2-1.7-.6-.4-.4-.6-.9-.6-1.4v-.7c0-.2.1-.5.1-.8l1-2.8c.1-.3.1-.5.2-.8 0-.2.1-.4.1-.6 0-.3 0-.5-.2-.7-.2-.2-.5-.2-.8-.2-.2 0-.4 0-.6.1-.2.1-.4.1-.5.2l.2-.9c.5-.2 1-.4 1.4-.5.4-.1.9-.2 1.3-.2.6 0 1.2.2 1.7.5.4.4.6.9.6 1.4v.6c0 .3-.1.6-.2.8l-.8 2.8c-.1.2-.1.5-.2.8 0 .2-.1.4-.1.6 0 .3.1.5.2.7.2.2.5.2.8.2.2 0 .4 0 .6-.1.2 0 .4-.1.5-.1zm.2-11.6c0 .5-.2.9-.5 1.2-.3.3-.8.5-1.3.5s-.9-.2-1.3-.5c-.3-.3-.5-.8-.5-1.2 0-.5.2-.9.5-1.2.7-.7 1.8-.7 2.5 0 .4.3.6.7.6 1.2z" fill="#fff" stroke="#009deb" stroke-width=".5"/></svg>