<svg version="1.1" xmlns="http://www.w3.org/2000/svg" viewBox="0 0 16 18.2" xml:space="preserve">
    <style>
        .st0 {
            fill: #009deb
        }
    </style>
    <path class="st0" d="M8 2.2c4.4 0 8 3.6 8 8s-3.6 8-8 8-8-3.6-8-8c0-4.5 3.6-8 8-8z" />
    <path
        d="m11.1 13.6-.2.9c-.6.2-1.1.4-1.5.6-.4.1-.8.2-1.3.2-.6 0-1.2-.2-1.7-.6-.4-.4-.6-.9-.6-1.4v-.7c0-.2.1-.5.1-.8l1-2.8c.1-.3.1-.5.2-.8 0-.2.1-.4.1-.6 0-.3 0-.5-.2-.7s-.5-.2-.8-.2c-.2 0-.4 0-.6.1s-.4.1-.5.2l.2-.9c.5-.2 1-.4 1.4-.5s.9-.2 1.3-.2c.6 0 1.2.2 1.7.5.4.4.6.9.6 1.4v.6c0 .3-.1.6-.2.8l-.8 2.8c-.1.2-.1.5-.2.8 0 .2-.1.4-.1.6 0 .3.1.5.2.7.2.2.5.2.8.2.2 0 .4 0 .6-.1.2 0 .4-.1.5-.1zM11.3 2c0 .5-.2.9-.5 1.2s-.8.5-1.3.5-.9-.2-1.3-.5c-.3-.3-.5-.8-.5-1.2 0-.5.2-.9.5-1.2.7-.7 1.8-.7 2.5 0 .4.3.6.7.6 1.2z"
        fill="#fff" />
    <path class="st0"
        d="M8.1 15.5c-.7 0-1.3-.2-1.9-.7-.5-.5-.7-1-.7-1.6v-1.1c0-.1.1-.3.1-.4v-.1l1-2.8c0-.1.1-.2.1-.4 0-.1 0-.2.1-.4 0-.1 0-.2.1-.3v-.2c0-.3 0-.4-.1-.5-.1-.1-.3-.1-.6-.1-.2 0-.3 0-.5.1-.1.1-.2.1-.3.1h-.1l-.6.7.4-1.9h.1c.5-.2 1-.4 1.4-.5.6-.1 1-.2 1.4-.2.6 0 1.3.2 1.8.5.5.5.7 1 .7 1.6v.6c0 .4-.2.8-.2.9l-.8 2.8c-.1.1-.1.2-.1.4 0 .1 0 .3-.1.4 0 .1 0 .2-.1.3v.2c0 .2.1.4.2.5.1.1.3.1.6.1.2 0 .3 0 .5-.1h.1c.1 0 .2 0 .3-.1h.5l-.3 1.3H11c-.6.2-1.1.4-1.5.6-.4.2-.8.3-1.4.3zm-1.9-3.7c0 .2 0 .3-.1.5v1c0 .4.2.9.5 1.2.4.3 1 .5 1.5.5s.9-.1 1.2-.2c.3-.2.8-.4 1.3-.5l.1-.4h-.1c-.2.1-.4.1-.6.1-.3 0-.7 0-1-.3v-.1c-.1-.2-.2-.5-.2-.8 0-.1 0-.3.1-.4v-.3c0-.1.1-.3.1-.4 0-.2.1-.3.1-.5l.8-2.8c.1-.3.2-.5.2-.7v-.4c0-.4-.2-.9-.5-1.2-.5-.3-1.1-.5-1.6-.5-.3 0-.7.1-1.2.2-.4.1-.8.3-1.3.5v.3c.3-.2.5-.2.7-.2.3 0 .7 0 1 .3.3.3.3.6.3.9 0 .1 0 .3-.1.4v.3c0 .1-.1.3-.1.4 0 .1-.1.3-.1.4l-1 2.7zm3.3-7.9c-.6 0-1.1-.3-1.4-.5-.4-.4-.6-1-.6-1.4 0-.5.2-1 .6-1.4.8-.8 2.1-.8 2.9 0 .4.3.7.8.7 1.4 0 .5-.2 1-.6 1.4-.5.3-1 .5-1.6.5zm0-3.4c-.4 0-.8.2-1.1.5-.3.2-.4.6-.4 1 0 .3.2.8.4 1 .4.3.7.4 1.1.4.4 0 .9-.2 1.1-.4.3-.3.4-.6.4-1s-.2-.7-.5-1c-.2-.3-.6-.5-1-.5z" />
</svg>