<svg xmlns="http://www.w3.org/2000/svg" viewBox="0 0 16 17.8" xml:space="preserve"><style>.st0{fill:#ffd54d}.st1{fill:#fff}</style><g transform="translate(-997 -232.535)"><path class="st0" d="M1005.03 234.4c4.4 0 8 3.6 8 8s-3.6 8-8 8-8-3.6-8-8c0-4.5 3.6-8 8-8z"/><g id="warning-sign"><path class="st1" d="M182.1 9.1c.6 0 1-.4 1.1-1l.7-8.8c.1-1-.7-1.9-1.7-2s-1.9.7-2 1.7v.3l.8 8.8c0 .6.5 1 1.1 1z" transform="translate(822.943 235.536)"/><path class="st0" d="M182.1 9.3c-.8 0-1.4-.5-1.4-1.2l-.8-9.1c.1-.6.3-1.1.7-1.5.4-.4 1-.6 1.5-.5.5.1 1.1.3 1.4.7.4.4.6 1 .5 1.5l-.7 8.8c0 .8-.5 1.3-1.2 1.3zM182-2.5c-.4 0-.7.1-1 .4-.3.3-.5.7-.6 1.1v.3l.8 8.8c0 .5.4.8.9.8s.8-.3.9-.8l.7-8.8c0-.4-.1-.8-.4-1.2-.3-.3-.7-.5-1.1-.6h-.2z" transform="translate(822.943 235.536)"/><path class="st1" d="M182.1 9.8c-.7 0-1.2.5-1.2 1.2s.5 1.2 1.2 1.2 1.2-.5 1.2-1.2c-.1-.7-.6-1.2-1.2-1.2z" transform="translate(822.943 235.536)"/><path class="st0" d="M182.1 12.4c-.8 0-1.5-.6-1.5-1.4s.6-1.5 1.5-1.5c.7 0 1.3.6 1.4 1.4 0 .9-.6 1.5-1.4 1.5zm0-2.4c-.6 0-1 .4-1 1s.4.9 1 .9 1-.4 1-.9c-.2-.6-.6-1-1-1z" transform="translate(822.943 235.536)"/></g></g></svg>