<svg xmlns="http://www.w3.org/2000/svg" width="16" height="12.5" viewBox="0 0 16 12.5">
  <path id="Upload_camera" d="M7.321,13a3.189,3.189,0,0,0,3.25,3.125,3.127,3.127,0,1,0,0-6.25A3.189,3.189,0,0,0,7.321,13Zm10.25-5.288h-3.5c-.25-.962-.5-1.923-1.5-1.923h-4c-1,0-1.25.962-1.5,1.923h-3.5a.984.984,0,0,0-1,.962v8.654a.984.984,0,0,0,1,.962h14a.984.984,0,0,0,1-.962V8.669A.984.984,0,0,0,17.571,7.707Zm-7,9.555A4.355,4.355,0,0,1,6.133,13a4.355,4.355,0,0,1,4.438-4.267A4.355,4.355,0,0,1,15.008,13,4.355,4.355,0,0,1,10.571,17.262Zm7-6.671h-2V9.63h2Z" transform="translate(-2.571 -5.784)" fill="currentColor"/>
</svg>
