<svg id="Component_1_8" data-name="Component 1 – 8" xmlns="http://www.w3.org/2000/svg" width="24" height="24"  viewBox="0 0 24 24">
  <g id="Group_2031" data-name="Group 2031" transform="translate(-976 -720)">
    <rect id="Rectangle_1067" data-name="Rectangle 1067" width="24" height="24" transform="translate(976 720)" fill="none"/>
    <g id="Icon_feather-copy" data-name="Icon feather-copy" transform="translate(981 725)">
      <g id="Path_3432" data-name="Path 3432" transform="translate(-9.9 -9.9)" fill="none" stroke-linecap="round" stroke-linejoin="round">
        <path d="M15.1,13.5h7.2a1.6,1.6,0,0,1,1.6,1.6v7.2a1.6,1.6,0,0,1-1.6,1.6H15.1a1.6,1.6,0,0,1-1.6-1.6V15.1A1.6,1.6,0,0,1,15.1,13.5Z" stroke="none"/>
        <path d="M 15.10000038146973 14.5 C 14.76916122436523 14.5 14.5 14.76916122436523 14.5 15.10000038146973 L 14.5 22.30000114440918 C 14.5 22.63084030151367 14.76916122436523 22.90000152587891 15.10000038146973 22.90000152587891 L 22.30000114440918 22.90000152587891 C 22.63084030151367 22.90000152587891 22.90000152587891 22.63084030151367 22.90000152587891 22.30000114440918 L 22.90000152587891 15.10000038146973 C 22.90000152587891 14.76916122436523 22.63084030151367 14.5 22.30000114440918 14.5 L 15.10000038146973 14.5 M 15.10000038146973 13.5 L 22.30000114440918 13.5 C 23.18366050720215 13.5 23.90000152587891 14.21634101867676 23.90000152587891 15.10000038146973 L 23.90000152587891 22.30000114440918 C 23.90000152587891 23.18366050720215 23.18366050720215 23.90000152587891 22.30000114440918 23.90000152587891 L 15.10000038146973 23.90000152587891 C 14.21634101867676 23.90000152587891 13.5 23.18366050720215 13.5 22.30000114440918 L 13.5 15.10000038146973 C 13.5 14.21634101867676 14.21635055541992 13.5 15.10000038146973 13.5 Z" stroke="none" fill="#8ea6c1"/>
      </g>
      <path id="Path_3433" data-name="Path 3433" d="M5.4,13.4H4.6A1.6,1.6,0,0,1,3,11.8V4.6A1.6,1.6,0,0,1,4.6,3h7.2a1.6,1.6,0,0,1,1.6,1.6v.8" transform="translate(-3 -3)" fill="none" stroke="#8ea6c1" stroke-linecap="round" stroke-linejoin="round" stroke-width="1"/>
    </g>
  </g>
</svg>
