<svg viewBox="0 0 12 12" fill="currentColor" xmlns="http://www.w3.org/2000/svg">
    <path fill-rule="evenodd" clip-rule="evenodd" d="M2.4 2.4V1.8C2.4 0.80589 3.20589 0 4.2 0H10.2C11.1941 0 12 0.80589 12 1.8V7.8C12 8.79414 11.1941 9.6 10.2 9.6H9.6V10.2C9.6 11.1941 8.79414 12 7.8 12H1.8C0.80589 12 0 11.1941 0 10.2V4.2C0 3.20589 0.80589 2.4 1.8 2.4H2.4ZM3.6 2.4V1.8C3.6 1.46863 3.86863 1.2 4.2 1.2H10.2C10.5314 1.2 10.8 1.46863 10.8 1.8V7.8C10.8 8.13138 10.5314 8.4 10.2 8.4H9.6V4.2C9.6 3.20589 8.79414 2.4 7.8 2.4H3.6Z" fill="currentColor" />
</svg>