<svg xmlns="http://www.w3.org/2000/svg" width="24" height="24" viewBox="0 0 24 24">
  <g id="Group_1211" data-name="Group 1211" transform="translate(-185 -237)">
    <g id="trash" transform="translate(144 242.411)">
      <path id="Path_2834" data-name="Path 2834" fill='currentColor' d="M57.038,1.6H54.923V1.2A1.179,1.179,0,0,0,53.769,0H52.231a1.179,1.179,0,0,0-1.154,1.2v.4H48.962a.983.983,0,0,0-.962,1v.8a.393.393,0,0,0,.385.4h9.231a.393.393,0,0,0,.385-.4v-.8A.983.983,0,0,0,57.038,1.6Zm-5.192-.4a.394.394,0,0,1,.385-.4h1.538a.394.394,0,0,1,.385.4v.4H51.846Z" transform="translate(0)"/>
      <path id="Path_2835" data-name="Path 2835" fill='currentColor' d="M73.487,184a.132.132,0,0,0-.123.144l.325,7.6A1.246,1.246,0,0,0,74.871,193h5.987a1.246,1.246,0,0,0,1.181-1.255l.325-7.6a.132.132,0,0,0-.123-.144Zm5.954,1.1a.4.4,0,1,1,.788,0V190.8a.4.4,0,1,1-.788,0Zm-1.971,0a.4.4,0,1,1,.788,0V190.8a.4.4,0,1,1-.788,0Zm-1.971,0a.4.4,0,1,1,.788,0V190.8a.4.4,0,1,1-.788,0Z" transform="translate(-24.864 -179.822)"/>
    </g>
    <rect id="Rectangle_927" data-name="Rectangle 927" fill="none" width="24" height="24" transform="translate(185 237)"/>
  </g>
</svg>
