<svg id="Component_61_1" data-name="Component 61 – 1" xmlns="http://www.w3.org/2000/svg" width="24" height="24" viewBox="0 0 24 24">
    <defs>
        <style>
            .cls-2{fill:currentColor}
        </style>
    </defs>
    <path id="Rectangle_919" data-name="Rectangle 919" style="fill:none" d="M0 0h24v24H0z"/>
    <g id="pencil" transform="translate(6.001 5.754)">
        <path id="Path_1944" data-name="Path 1944" class="cls-2" d="m7.41 82.473-6.6 6.6a.263.263 0 0 0-.069.121l-.734 2.94a.26.26 0 0 0 .252.323.258.258 0 0 0 .063-.008l2.937-.732a.26.26 0 0 0 .121-.069l6.6-6.6zm0 0" transform="translate(0 -80.223)"/>
        <path id="Path_1945" data-name="Path 1945" class="cls-2" d="m337.8 1.35-.735-.735a1.331 1.331 0 0 0-1.838 0l-.9.9 2.573 2.573.9-.9a1.3 1.3 0 0 0 0-1.838zm0 0" transform="translate(-326.182)"/>
    </g>
</svg>
 