<svg xmlns="http://www.w3.org/2000/svg" width="36.129" height="36.129" xml:space="preserve"><path d="M30.32 7.163H1.811C.812 7.163 0 7.974 0 8.975V31.15c0 .998.812 1.811 1.811 1.811H30.32c1 0 1.812-.812 1.812-1.811V8.974a1.813 1.813 0 0 0-1.812-1.811zm-1.81 3.621v16.323l-4.141-5.026a.45.45 0 0 0-.615-.076l-4.816 3.517-8.27-8.045a.451.451 0 0 0-.687.064L3.622 26.64V10.784H28.51zm-10.86 6.789a2.945 2.945 0 0 1 2.94-2.943 2.944 2.944 0 0 1 2.941 2.943 2.945 2.945 0 0 1-2.941 2.941 2.946 2.946 0 0 1-2.94-2.941zm17.121 8.823c-.75 0-1.356-.608-1.356-1.356V5.88H5.206a1.355 1.355 0 1 1 0-2.712h29.565c.75 0 1.357.607 1.357 1.356v20.517a1.356 1.356 0 0 1-1.357 1.355z"/></svg>