<svg id="Component_45_6" data-name="Component 45 – 6" xmlns="http://www.w3.org/2000/svg" width="24" height="24" viewBox="0 0 24 24">
  <g id="filter" transform="translate(4 4)">
    <path id="Path_3504" data-name="Path 3504" d="M13.126,0H2.874A2.877,2.877,0,0,0,0,2.874V13.126A2.877,2.877,0,0,0,2.874,16H13.126A2.877,2.877,0,0,0,16,13.126V2.874A2.877,2.877,0,0,0,13.126,0Zm.4,12.486H8.394a1.476,1.476,0,0,1-2.8,0H2.478a.471.471,0,0,1,0-.941H5.6a1.476,1.476,0,0,1,2.8,0h5.128A.471.471,0,0,1,13.522,12.486Zm0-4.016H12.409a1.476,1.476,0,0,1-2.8,0H2.478a.471.471,0,0,1,0-.941H9.614a1.476,1.476,0,0,1,2.8,0h1.112A.471.471,0,0,1,13.522,8.471Zm0-4.016H6.386a1.476,1.476,0,0,1-2.8,0H2.478a.471.471,0,0,1,0-.941H3.591a1.476,1.476,0,0,1,2.8,0h7.136A.471.471,0,0,1,13.522,4.455Z" fill="#505d6e"/>
    <path id="Path_3505" data-name="Path 3505" d="M207.473,367.435a.533.533,0,0,0,0,1.067A.533.533,0,0,0,207.473,367.435Z" transform="translate(-200.477 -355.953)" fill="currentColor"/>
    <path id="Path_3506" data-name="Path 3506" d="M143.222,110.431a.533.533,0,0,0,0,1.067A.533.533,0,0,0,143.222,110.431Z" transform="translate(-138.234 -106.98)" fill="currentColor"/>
    <path id="Path_3507" data-name="Path 3507" d="M335.974,238.933a.533.533,0,0,0,0,1.067A.533.533,0,0,0,335.974,238.933Z" transform="translate(-324.962 -231.466)" fill="currentColor"/>
  </g>
  <rect id="Rectangle_11107" data-name="Rectangle 11107" width="24" height="24" fill="none"/>
</svg>
