<?xml version="1.0" encoding="utf-8"?>
<!-- Generator: Adobe Illustrator 25.0.0, SVG Export Plug-In . SVG Version: 6.00 Build 0)  -->
<svg version="1.1" id="Layer_1" xmlns="http://www.w3.org/2000/svg" xmlns:xlink="http://www.w3.org/1999/xlink" x="0px" y="0px"
	 viewBox="0 0 32 32" style="enable-background:new 0 0 32 32;" xml:space="preserve">
<style type="text/css">
	.st0{fill:url(#SVGID_1_);}
	.st1{fill:url(#SVGID_2_);}
	.st2{fill:url(#SVGID_3_);}
	.st3{fill:url(#SVGID_4_);}
	.st4{fill:url(#SVGID_5_);}
	.st5{fill:url(#SVGID_6_);}
	.st6{fill:url(#SVGID_7_);}
	.st7{fill:url(#SVGID_8_);}
	.st8{fill:url(#SVGID_9_);}
	.st9{fill:url(#SVGID_10_);}
	.st10{fill:url(#SVGID_11_);}
	.st11{fill:url(#SVGID_12_);}
</style>
<linearGradient id="SVGID_1_" gradientUnits="userSpaceOnUse" x1="29.843" y1="29.346" x2="3.6214" y2="4.0467" gradientTransform="matrix(1 0 0 -1 -1.3 34.0743)">
	<stop  offset="4.800000e-02" style="stop-color:#FFF44F"/>
	<stop  offset="0.111" style="stop-color:#FFE847"/>
	<stop  offset="0.225" style="stop-color:#FFC830"/>
	<stop  offset="0.368" style="stop-color:#FF980E"/>
	<stop  offset="0.401" style="stop-color:#FF8B16"/>
	<stop  offset="0.462" style="stop-color:#FF672A"/>
	<stop  offset="0.534" style="stop-color:#FF3647"/>
	<stop  offset="0.705" style="stop-color:#E31587"/>
</linearGradient>
<path class="st0" d="M30.8,10.7c-0.7-1.6-2.1-3.4-3.2-3.9c0.8,1.5,1.3,3.1,1.6,4.7l0,0c-1.8-4.4-4.9-6.1-7.4-10
	c-0.1-0.2-0.3-0.4-0.4-0.6c-0.1-0.1-0.1-0.2-0.2-0.3c-0.1-0.2-0.2-0.4-0.2-0.6c0,0,0,0,0,0c0,0,0,0,0,0c0,0,0,0,0,0s0,0,0,0l0,0
	c-4,2.3-5.4,6.5-5.5,8.6c-1.6,0.1-3.1,0.7-4.4,1.6c-0.1-0.1-0.3-0.2-0.4-0.3c-0.4-1.2-0.4-2.5,0-3.8C9.1,6.9,7.8,7.9,6.8,9.1h0
	C6.1,8.3,6.2,5.7,6.2,5.2C6,5.3,5.8,5.3,5.7,5.5C5.1,5.8,4.6,6.3,4.1,6.8C3.5,7.3,3,7.9,2.6,8.5v0v0c-1,1.4-1.8,3-2.1,4.7l0,0.1
	c0,0.1-0.1,0.8-0.2,1c0,0,0,0,0,0C0.1,15,0,15.7,0,16.4v0.1C0,25.1,7.2,32,16,32c7.8,0,14.4-5.4,15.8-12.9c0-0.2,0-0.4,0.1-0.6
	C32.2,15.9,31.9,13.2,30.8,10.7L30.8,10.7z M12.4,22.9c0.1,0,0.1,0.1,0.2,0.1l0,0C12.5,23,12.5,22.9,12.4,22.9z M29.3,11.6
	L29.3,11.6L29.3,11.6L29.3,11.6z"/>
<radialGradient id="SVGID_2_" cx="-7929.7153" cy="8573.0391" r="80.8" gradientTransform="matrix(0.4133 0 0 -0.4002 3305.1689 3434.6501)" gradientUnits="userSpaceOnUse">
	<stop  offset="0.129" style="stop-color:#FFBD4F"/>
	<stop  offset="0.186" style="stop-color:#FFAC31"/>
	<stop  offset="0.247" style="stop-color:#FF9D17"/>
	<stop  offset="0.283" style="stop-color:#FF980E"/>
	<stop  offset="0.403" style="stop-color:#FF563B"/>
	<stop  offset="0.467" style="stop-color:#FF3750"/>
	<stop  offset="0.71" style="stop-color:#F5156C"/>
	<stop  offset="0.782" style="stop-color:#EB0878"/>
	<stop  offset="0.86" style="stop-color:#E50080"/>
</radialGradient>
<path class="st1" d="M30.8,10.7c-0.7-1.6-2.1-3.4-3.2-3.9c0.8,1.5,1.3,3.1,1.6,4.7v0l0,0c1.2,3.4,1.1,7.2-0.5,10.5
	c-1.8,3.8-6.3,7.7-13.2,7.5C8,29.4,1.4,24,0.1,16.9c-0.2-1.1,0-1.7,0.1-2.6C0.1,15,0,15.7,0,16.4v0.1C0,25.1,7.2,32,16.1,32
	c7.8,0,14.4-5.4,15.8-12.9c0-0.2,0-0.4,0.1-0.6C32.2,15.9,31.9,13.2,30.8,10.7L30.8,10.7z"/>
<radialGradient id="SVGID_3_" cx="-7959.7153" cy="8540.0391" r="80.8" gradientTransform="matrix(0.4133 0 0 -0.4002 3305.1689 3434.6501)" gradientUnits="userSpaceOnUse">
	<stop  offset="0.3" style="stop-color:#960E18"/>
	<stop  offset="0.351" style="stop-color:#B11927;stop-opacity:0.74"/>
	<stop  offset="0.435" style="stop-color:#DB293D;stop-opacity:0.343"/>
	<stop  offset="0.497" style="stop-color:#F5334B;stop-opacity:9.400000e-02"/>
	<stop  offset="0.53" style="stop-color:#FF3750;stop-opacity:0"/>
</radialGradient>
<path class="st2" d="M30.8,10.7c-0.7-1.6-2.1-3.4-3.2-3.9c0.8,1.5,1.3,3.1,1.6,4.7v0l0,0c1.2,3.4,1.1,7.2-0.5,10.5
	c-1.8,3.8-6.3,7.7-13.2,7.5C8,29.4,1.4,24,0.1,16.9c-0.2-1.1,0-1.7,0.1-2.6C0.1,15,0,15.7,0,16.4v0.1C0,25.1,7.2,32,16.1,32
	c7.8,0,14.4-5.4,15.8-12.9c0-0.2,0-0.4,0.1-0.6C32.2,15.9,31.9,13.2,30.8,10.7L30.8,10.7z"/>
<radialGradient id="SVGID_4_" cx="-7949.7153" cy="8591.0391" r="58.53" gradientTransform="matrix(0.4133 0 0 -0.4002 3305.1689 3434.6501)" gradientUnits="userSpaceOnUse">
	<stop  offset="0.132" style="stop-color:#FFF44F"/>
	<stop  offset="0.252" style="stop-color:#FFDC3E"/>
	<stop  offset="0.506" style="stop-color:#FF9D12"/>
	<stop  offset="0.526" style="stop-color:#FF980E"/>
</radialGradient>
<path class="st3" d="M23.1,12.6C23.1,12.6,23.1,12.6,23.1,12.6c-0.3-0.6-0.8-1.3-1.4-1.8C16.7,5.9,20.4,0.3,21,0l0,0
	c-4,2.3-5.4,6.5-5.5,8.6c0.2,0,0.4,0,0.6,0C18.9,8.6,21.6,10.1,23.1,12.6L23.1,12.6z"/>
<radialGradient id="SVGID_5_" cx="-7968.7153" cy="8519.0391" r="38.47" gradientTransform="matrix(0.4133 0 0 -0.4002 3305.1689 3434.6501)" gradientUnits="userSpaceOnUse">
	<stop  offset="0.353" style="stop-color:#3A8EE6"/>
	<stop  offset="0.472" style="stop-color:#5C79F0"/>
	<stop  offset="0.669" style="stop-color:#9059FF"/>
	<stop  offset="1" style="stop-color:#C139E6"/>
</radialGradient>
<path class="st4" d="M16,13.5c0,0.4-1.4,1.7-1.9,1.7c-4.6,0-5.3,2.7-5.3,2.7C9,20.2,10.6,22,12.6,23c0.1,0,0.2,0.1,0.3,0.1
	c0.2,0.1,0.3,0.1,0.5,0.2c0.7,0.2,1.4,0.4,2.1,0.4c8,0.4,9.5-9.2,3.8-12c1.4-0.2,2.7,0.2,3.9,0.9c-1.4-2.4-4.1-4-7-4
	c-0.2,0-0.4,0-0.6,0c-1.6,0.1-3.1,0.7-4.4,1.6c0.2,0.2,0.5,0.5,1.1,1C13.2,12.3,16,13.4,16,13.5L16,13.5z"/>
<radialGradient id="SVGID_6_" cx="-7959.5317" cy="8549.7461" r="20.4" gradientTransform="matrix(0.4017 -9.405003e-02 -0.1137 -0.4554 4186.3745 3159.3618)" gradientUnits="userSpaceOnUse">
	<stop  offset="0.206" style="stop-color:#9059FF;stop-opacity:0"/>
	<stop  offset="0.278" style="stop-color:#8C4FF3;stop-opacity:6.400000e-02"/>
	<stop  offset="0.747" style="stop-color:#7716A8;stop-opacity:0.45"/>
	<stop  offset="0.975" style="stop-color:#6E008B;stop-opacity:0.6"/>
</radialGradient>
<path class="st5" d="M16,13.5c0,0.4-1.4,1.7-1.9,1.7c-4.6,0-5.3,2.7-5.3,2.7C9,20.2,10.6,22,12.6,23c0.1,0,0.2,0.1,0.3,0.1
	c0.2,0.1,0.3,0.1,0.5,0.2c0.7,0.2,1.4,0.4,2.1,0.4c8,0.4,9.5-9.2,3.8-12c1.4-0.2,2.7,0.2,3.9,0.9c-1.4-2.4-4.1-4-7-4
	c-0.2,0-0.4,0-0.6,0c-1.6,0.1-3.1,0.7-4.4,1.6c0.2,0.2,0.5,0.5,1.1,1C13.2,12.3,16,13.4,16,13.5L16,13.5z"/>
<radialGradient id="SVGID_7_" cx="-7960.7153" cy="8576.0391" r="27.68" gradientTransform="matrix(0.4133 0 0 -0.4002 3305.1689 3434.6501)" gradientUnits="userSpaceOnUse">
	<stop  offset="0" style="stop-color:#FFE226"/>
	<stop  offset="0.121" style="stop-color:#FFDB27"/>
	<stop  offset="0.295" style="stop-color:#FFC82A"/>
	<stop  offset="0.502" style="stop-color:#FFA930"/>
	<stop  offset="0.732" style="stop-color:#FF7E37"/>
	<stop  offset="0.792" style="stop-color:#FF7139"/>
</radialGradient>
<path class="st6" d="M10.3,9.8c0.1,0.1,0.2,0.1,0.3,0.2c-0.4-1.2-0.4-2.5,0-3.8C9.1,6.9,7.8,7.9,6.7,9.1C6.8,9.1,9.1,9,10.3,9.8z"/>
<radialGradient id="SVGID_8_" cx="-7938.7153" cy="8594.0391" r="118.1" gradientTransform="matrix(0.4133 0 0 -0.4002 3305.1689 3434.6501)" gradientUnits="userSpaceOnUse">
	<stop  offset="0.113" style="stop-color:#FFF44F"/>
	<stop  offset="0.456" style="stop-color:#FF980E"/>
	<stop  offset="0.622" style="stop-color:#FF5634"/>
	<stop  offset="0.716" style="stop-color:#FF3647"/>
	<stop  offset="0.904" style="stop-color:#E31587"/>
</radialGradient>
<path class="st7" d="M0.1,16.9C1.4,24,8,29.4,15.5,29.6c7,0.2,11.4-3.7,13.2-7.5c1.6-3.3,1.7-7,0.5-10.5v0c0,0,0,0,0,0l0,0
	c0.6,3.6-1.3,7.1-4.3,9.4l0,0c-5.7,4.5-11.3,2.7-12.4,2c-0.1,0-0.2-0.1-0.2-0.1c-3.4-1.6-4.7-4.5-4.4-7c-1.6,0-3.1-0.9-3.8-2.3
	c1.8-1.1,4-1.1,5.9-0.2c1.9,0.8,4.1,0.9,6,0.2c0-0.1-2.8-1.2-3.9-2.2c-0.6-0.6-0.9-0.8-1.1-1c-0.1-0.1-0.3-0.2-0.4-0.3
	c-0.1-0.1-0.2-0.1-0.3-0.2C9.2,9,6.8,9.1,6.8,9.1h0C6.1,8.3,6.2,5.7,6.2,5.2C6,5.3,5.8,5.3,5.7,5.5C5.1,5.8,4.6,6.3,4.1,6.8
	C3.5,7.3,3,7.9,2.6,8.5v0v0c-1,1.4-1.8,3-2.1,4.7C0.4,13.2-0.1,15.6,0.1,16.9L0.1,16.9z"/>
<radialGradient id="SVGID_9_" cx="-7950.3135" cy="8589.6182" r="86.5" gradientTransform="matrix(4.339818e-02 0.3982 0.2699 -2.761469e-02 -1953.3553 3400.9338)" gradientUnits="userSpaceOnUse">
	<stop  offset="0" style="stop-color:#FFF44F"/>
	<stop  offset="6.000000e-02" style="stop-color:#FFE847"/>
	<stop  offset="0.168" style="stop-color:#FFC830"/>
	<stop  offset="0.304" style="stop-color:#FF980E"/>
	<stop  offset="0.356" style="stop-color:#FF8B16"/>
	<stop  offset="0.455" style="stop-color:#FF672A"/>
	<stop  offset="0.57" style="stop-color:#FF3647"/>
	<stop  offset="0.737" style="stop-color:#E31587"/>
</radialGradient>
<path class="st8" d="M21.7,10.8c0.6,0.6,1.1,1.2,1.5,1.9c0.1,0.1,0.2,0.1,0.2,0.2c3.6,3.2,1.7,7.8,1.6,8.1c3-2.4,4.8-5.8,4.3-9.4
	c-1.8-4.4-4.9-6.1-7.4-10c-0.1-0.2-0.3-0.4-0.4-0.6c-0.1-0.1-0.1-0.2-0.2-0.3c-0.1-0.2-0.2-0.4-0.2-0.6c0,0,0,0,0,0c0,0,0,0,0,0
	c0,0,0,0,0,0s0,0,0,0C20.4,0.3,16.7,5.9,21.7,10.8L21.7,10.8z"/>
<radialGradient id="SVGID_10_" cx="-7960.7153" cy="8566.0391" r="73.72" gradientTransform="matrix(0.4133 0 0 -0.4002 3305.1689 3434.6501)" gradientUnits="userSpaceOnUse">
	<stop  offset="0.137" style="stop-color:#FFF44F"/>
	<stop  offset="0.48" style="stop-color:#FF980E"/>
	<stop  offset="0.592" style="stop-color:#FF5634"/>
	<stop  offset="0.655" style="stop-color:#FF3647"/>
	<stop  offset="0.904" style="stop-color:#E31587"/>
</radialGradient>
<path class="st9" d="M23.4,12.8c-0.1-0.1-0.2-0.1-0.2-0.2c0,0-0.1,0-0.1-0.1c-1.1-0.8-2.5-1.1-3.9-0.9c5.8,2.8,4.2,12.4-3.8,12
	c-0.7,0-1.4-0.2-2.1-0.4c-0.2-0.1-0.3-0.1-0.5-0.2c-0.1,0-0.2-0.1-0.3-0.1l0,0c1.1,0.7,6.6,2.5,12.4-2l0,0
	C25.1,20.7,27,16.1,23.4,12.8L23.4,12.8z"/>
<radialGradient id="SVGID_11_" cx="-7941.7153" cy="8562.0391" r="80.69" gradientTransform="matrix(0.4133 0 0 -0.4002 3305.1689 3434.6501)" gradientUnits="userSpaceOnUse">
	<stop  offset="9.400000e-02" style="stop-color:#FFF44F"/>
	<stop  offset="0.231" style="stop-color:#FFE141"/>
	<stop  offset="0.509" style="stop-color:#FFAF1E"/>
	<stop  offset="0.626" style="stop-color:#FF980E"/>
</radialGradient>
<path class="st10" d="M8.8,17.9c0,0,0.7-2.7,5.3-2.7c0.5,0,1.9-1.3,1.9-1.7c-2,0.7-4.1,0.6-6-0.2c-1.9-0.9-4.1-0.8-5.9,0.2
	c0.7,1.4,2.2,2.3,3.8,2.3c-0.3,2.5,1.1,5.5,4.4,7c0.1,0,0.1,0.1,0.2,0.1C10.6,22,9,20.2,8.8,17.9L8.8,17.9z"/>
<linearGradient id="SVGID_12_" gradientUnits="userSpaceOnUse" x1="29.4114" y1="29.3619" x2="7.221" y2="7.1675" gradientTransform="matrix(1 0 0 -1 -1.3 34.0743)">
	<stop  offset="0.167" style="stop-color:#FFF44F;stop-opacity:0.8"/>
	<stop  offset="0.266" style="stop-color:#FFF44F;stop-opacity:0.634"/>
	<stop  offset="0.489" style="stop-color:#FFF44F;stop-opacity:0.217"/>
	<stop  offset="0.6" style="stop-color:#FFF44F;stop-opacity:0"/>
</linearGradient>
<path class="st11" d="M30.8,10.7c-0.7-1.6-2.1-3.4-3.2-3.9c0.8,1.5,1.3,3.1,1.6,4.7l0,0c-1.8-4.4-4.9-6.1-7.4-10
	c-0.1-0.2-0.3-0.4-0.4-0.6c-0.1-0.1-0.1-0.2-0.2-0.3c-0.1-0.2-0.2-0.4-0.2-0.6c0,0,0,0,0,0c0,0,0,0,0,0c0,0,0,0,0,0s0,0,0,0l0,0
	c-4,2.3-5.4,6.5-5.5,8.6c0.2,0,0.4,0,0.6,0c2.9,0,5.6,1.5,7,4c-1.1-0.8-2.5-1.1-3.9-0.9c5.8,2.8,4.2,12.4-3.8,12
	c-0.7,0-1.4-0.2-2.1-0.4c-0.2-0.1-0.3-0.1-0.5-0.2c-0.1,0-0.2-0.1-0.3-0.1l0,0c-0.1,0-0.2-0.1-0.2-0.1c0.1,0,0.1,0.1,0.2,0.1
	c-2-1-3.6-2.8-3.8-5.1c0,0,0.7-2.7,5.3-2.7c0.5,0,1.9-1.3,1.9-1.7c0-0.1-2.8-1.2-3.9-2.2c-0.6-0.6-0.9-0.8-1.1-1
	c-0.1-0.1-0.3-0.2-0.4-0.3c-0.4-1.2-0.4-2.5,0-3.8C9.1,6.9,7.8,7.9,6.8,9.1h0C6.1,8.3,6.2,5.7,6.2,5.2C6,5.3,5.8,5.3,5.7,5.5
	C5.1,5.8,4.6,6.3,4.1,6.8C3.5,7.3,3,7.9,2.6,8.5v0v0c-1,1.4-1.8,3-2.1,4.7l0,0.1c0,0.1-0.2,0.8-0.2,1l0,0C0.1,15,0,15.7,0,16.4v0.1
	C0,25.1,7.2,32,16,32c7.8,0,14.4-5.4,15.8-12.9c0-0.2,0-0.4,0.1-0.6C32.2,15.9,31.9,13.2,30.8,10.7L30.8,10.7z M29.3,11.5L29.3,11.5
	L29.3,11.5z"/>
</svg>
