<svg xmlns="http://www.w3.org/2000/svg" width="80" height="80" viewBox="0 0 80 80">
  <g id="Go_to_live_icon" transform="translate(-254 -335)">
    <g id="Go_to_live_icon-2" data-name="Go_to_live_icon" transform="translate(-399 97)">
      <g id="Group_2585" data-name="Group 2585" transform="translate(15776.848 7714.675)">
        <g id="Group_502" data-name="Group 502" transform="translate(-15123.848 -7476.675)">
          <circle id="Ellipse_1" data-name="Ellipse 1" cx="40" cy="40" r="40" transform="translate(0 0)" fill="#00b21e" opacity="0.1"/>
        </g>
      </g>
    </g>
    <g id="Icon_ionic-ios-rocket" data-name="Icon ionic-ios-rocket" transform="translate(271.634 352.628)">
      <path id="Path_43188" data-name="Path 43188" d="M41.166,3.888a.4.4,0,0,0-.3-.311C35.9,2.361,24.418,6.694,18.2,12.918a26.9,26.9,0,0,0-3.023,3.574,11.239,11.239,0,0,0-5.47.685c-4.612,2.029-5.954,7.33-6.328,9.606a.818.818,0,0,0,.895.951l7.406-.813a16.492,16.492,0,0,0,.1,1.673,1.659,1.659,0,0,0,.484,1.014l2.867,2.87a1.657,1.657,0,0,0,1.014.484,16.419,16.419,0,0,0,1.662.1l-.813,7.4a.818.818,0,0,0,.95.9c2.274-.366,7.58-1.709,9.6-6.325a11.317,11.317,0,0,0,.694-5.456,26.929,26.929,0,0,0,3.58-3.025C38.061,20.339,42.362,9.106,41.166,3.888ZM26.262,18.5a3.9,3.9,0,1,1,5.516,0A3.9,3.9,0,0,1,26.262,18.5Z" transform="translate(0 0)" fill="#00b21e"/>
      <path id="Path_43189" data-name="Path 43189" d="M14.281,27.812h0a3.5,3.5,0,0,1-1.824.737A2.48,2.48,0,0,1,9.6,25.694a3.426,3.426,0,0,1,.728-1.815l.009-.009a.308.308,0,0,0-.258-.525A4.235,4.235,0,0,0,7.6,24.551c-1.658,1.658-1.815,7.812-1.815,7.812s6.163-.157,7.821-1.815a4.207,4.207,0,0,0,1.207-2.478A.315.315,0,0,0,14.281,27.812Z" transform="translate(0.751 5.892)" fill="#00b21e"/>
    </g>
  </g>
</svg>
