<svg xmlns="http://www.w3.org/2000/svg">
    <g data-name="Group 2318">
        <path data-name="Path 995" d="m51.57 236.959-6.527-6.527a1.473 1.473 0 0 0-2.083 0l-6.524 6.523-.007.006a1.472 1.472 0 0 0 .98 2.509.356.356 0 0 0 .045 0h.26v4.8a1.726 1.726 0 0 0 1.724 1.73h2.554a.469.469 0 0 0 .469-.468v-3.766a.787.787 0 0 1 .787-.787h1.506a.787.787 0 0 1 .787.787v3.766a.469.469 0 0 0 .469.468h2.554a1.726 1.726 0 0 0 1.724-1.724v-4.8h.241a1.473 1.473 0 0 0 1.042-2.514z" transform="translate(-32 -226)" style="fill:currentColor"/>
        <path data-name="Rectangle 967" style="fill:none" d="M0 0h24v24H0z"/>
    </g>
</svg>
