<?xml version="1.0" encoding="utf-8"?>
<!-- Generator: Adobe Illustrator 25.0.0, SVG Export Plug-In . SVG Version: 6.00 Build 0)  -->
<svg version="1.1" id="Layer_1" xmlns="http://www.w3.org/2000/svg" xmlns:xlink="http://www.w3.org/1999/xlink" x="0px" y="0px"
	 viewBox="0 0 496.1 533.3" style="enable-background:new 0 0 496.1 533.3;" xml:space="preserve">
<style type="text/css">
	.st0{fill:#0078D7;}
</style>
<path class="st0" d="M155.2,316.7c0,12.8,1.9,24.5,5.8,35c4.2,10.3,9.6,19.6,16.5,27.7c6.9,8.1,15,15,24.5,20.8
	c9.2,5.8,19.2,10.7,29.8,14.4c10.6,3.8,21.7,6.7,32.9,8.5c11.4,1.8,22.5,2.8,33.8,2.8c14.2,0,27.3-1.1,39.8-3.3
	c12.5-2.3,24.7-5.4,36.7-9.3c12-3.9,23.6-8.6,35.2-13.9c11.7-5.3,23.5-11.2,35.7-17.7v113c-13.6,6.7-26.9,12.2-40.2,17.1
	c-13.3,4.7-26.7,8.8-40.2,12c-13.6,3.3-27.3,5.8-41.4,7.3c-14.1,1.5-28.5,2.3-43.5,2.3c-20,0-39.3-2.3-57.9-6.9
	c-18.6-4.6-36-11.2-52.3-19.8s-31.2-19.2-44.8-31.5c-13.7-12.3-25.2-26.3-35-41.7c-9.8-15.4-17.2-32.3-22.7-50.5
	c-5.3-18.2-7.9-37.5-7.9-58c0-21.9,3-42.8,9-62.7c6.1-20,14.7-38.2,26-54.8c11.3-16.7,25-31.5,41.2-44.4
	c16.3-12.9,34.5-23.5,54.8-31.7c-11.1,11.1-19.8,24.2-25.8,39.4c-6.2,15.2-10.2,30.4-11.9,45.7h189.8c0-19.2-1.9-35.8-5.8-50.2
	c-3.9-14.3-10.2-26.2-18.9-35.7c-8.7-9.5-19.8-16.7-33.6-21.3c-13.8-4.7-30.3-7.2-49.7-7.2c-22.9,0-45.8,3.3-68.8,10.3
	c-22.9,6.7-44.7,16.2-65.3,28.3c-20.7,12.2-39.7,26.7-57,43.2c-17.3,16.7-31.9,34.6-43.8,54c2.5-22.5,7.5-44.2,14.4-64.8
	s16.1-39.8,27.1-57.5c11-17.5,23.9-33.5,38.7-47.8s31.1-26.7,49.2-36.7S166.6,13,187.4,7.6c20.8-4.8,43-7.6,66.3-7.6
	c13.7,0,27.2,1.2,40.8,3.7c13.6,2.5,26.8,5.8,39.8,10.2c25.7,8.8,48.6,21.2,68.8,36.8c20.2,15.8,37.1,33.8,50.8,54.4
	s24.2,43.3,31.3,68.1s10.8,50.5,10.8,77.2v66.2H155.2z"/>
</svg>
