<svg xmlns="http://www.w3.org/2000/svg" width="209.74" height="135.83" viewBox="0 0 209.74 135.83">
  <g id="bg6" transform="translate(1.081 0.007)">
    <g id="bg" transform="translate(-0.837 -0.007)">
      <path id="Path_2449" data-name="Path 2449" d="M660.231,240.789s-17.921-57.919,31.043-60.827,39.945,12.389,83.429,2.939,44.216-15.989,66.869-6.542,24.109,33.794,19.368,46.149-14.251,22.166-13.521,29.071,16.1,24.661,18.127,36.65c1.116,6.546-2.128,17.711-5.159,18.186-22.531,3.614-113.012-2.332-113.012-2.332l-52.52-2.332-28.112-3.845s.962-16.193.868-29C667.515,255.792,660.231,240.789,660.231,240.789Z" transform="translate(-657.03 -171.753)" fill="#f8f8ff"/>
      <path id="Path_2450" data-name="Path 2450" d="M699.479,669.011s-6.125,25.416,27.484,23.688,33.21-5.477,54.417,1.152,34.411,9.225,50.817,4.035,16.8-4.329,37.608-4.329,27.926-22.291,28.469-25.333c.641-3.587-.857-15.352-3.831-15.388-21.988-.269-158.185-1.415-168.923,1.569-9.226,2.56-20.314,11.066-25.647,13.333" transform="translate(-689.663 -544.64)" fill="#f5f5fc"/>
    </g>
    <g id="window" transform="translate(-1.082 8.262)">
      <path id="Path_2451" data-name="Path 2451" d="M718.223,302.432l20.761-8.519.357-85.273s-15.314.977-21.341,6.806Z" transform="translate(-704.145 -208.64)" fill="#e9edfb"/>
      <path id="Path_2452" data-name="Path 2452" d="M670.871,239l.507,86.873-3.632,1.513s.518-3.952-.375-12.534c-.821-8-9.26-27.409-9.894-34.826-.446-5.257-.2-26.714,5.023-33.084C667.319,241.065,670.871,239,670.871,239Z" transform="translate(-657.016 -232.194)" fill="#e9edfb"/>
      <path id="Path_2832" data-name="Path 2832" d="M4.358,0c2.4,0,4.353,1.351,4.351,3.023S6.757,6.053,4.352,6.055,0,4.7,0,3.032,1.953,0,4.358,0Z" transform="matrix(0.985, -0.172, 0.172, 0.985, 19.647, 26.893)" fill="#fff"/>
      <path id="Path_2833" data-name="Path 2833" d="M3.556,0c1.962,0,3.552,1.1,3.55,2.465S5.513,4.937,3.551,4.938,0,3.837,0,2.473,1.593,0,3.556,0Z" transform="matrix(0.985, -0.172, 0.172, 0.985, 25.467, 26.392)" fill="#fff"/>
      <path id="Path_2834" data-name="Path 2834" d="M4.358,0c2.4,0,4.353,1.351,4.351,3.023S6.757,6.053,4.352,6.055,0,4.7,0,3.032,1.953,0,4.358,0Z" transform="matrix(0.985, -0.172, 0.172, 0.985, 0, 37.428)" fill="#fff"/>
      <path id="Path_2835" data-name="Path 2835" d="M3.556,0c1.962,0,3.552,1.1,3.55,2.465S5.513,4.937,3.551,4.938,0,3.837,0,2.473,1.593,0,3.556,0Z" transform="matrix(0.985, -0.172, 0.172, 0.985, 5.151, 35.583)" fill="#fff"/>
      <path id="Path_2453" data-name="Path 2453" d="M725.94,228.479l1.054-.59.049-.025.656-.33.627-.285,1.018,87.559-2.183.91Z" transform="translate(-710.312 -223.078)" fill="#fff"/>
      <path id="Path_2454" data-name="Path 2454" d="M686.688,481.924l-.243-.825a3.815,3.815,0,0,1-.2-.61l-.279-.673-.252-.731,28.322-10.745.094,2.39Z" transform="translate(-679.063 -410.118)" fill="#fff"/>
      <path id="Path_2455" data-name="Path 2455" d="M657.63,373.81l-.08-.482c-.054-.141-.114-.7-.161-.83l-.116-.919-.1-.673L692.1,357.5l-.1,2.354Z" transform="translate(-656.894 -324.127)" fill="#fff"/>
    </g>
    <g id="seat" transform="translate(90.71 57.643)">
      <path id="Path_2456" data-name="Path 2456" d="M1080.346,460.963a7.3,7.3,0,0,0,1.427-3.363,7.99,7.99,0,0,1,2.1-4.694c2.069-1.984,2.375-10.313,2.418-13.4a11.9,11.9,0,0,1,.542-3.439c.619-1.953,1.884-4.656,4.34-5.961,2.5-1.329,10.492-1.874,12.822.074a12,12,0,0,1,4.154,10.019c.359,3.905.138,6.755,2.116,9.205s4.215,5.448,3.632,8.483,4.621,7.513-1.074,9.38-11.514,3.159-17.859,2.65c-5.621-.448-13.307-1.365-14.818-5.1A3.745,3.745,0,0,1,1080.346,460.963Z" transform="translate(-1076.919 -428.905)" fill="#e9edfa"/>
      <path id="Path_2457" data-name="Path 2457" d="M1087.141,564.044a3.355,3.355,0,0,1,1.212-1.249c.607-.3,1.824-1.173,7.824,1.312,8.57,3.549,15.626-.78,16.3-.865s6.722-1.991,6.554,1.991-7.311,6.147-9.494,6.235-11.175.953-15.626-.345-6.146-3.011-6.447-3.437A3.086,3.086,0,0,1,1087.141,564.044Z" transform="translate(-1082.297 -532.473)" fill="#bac5f4"/>
      <path id="Path_2458" data-name="Path 2458" d="M1086.228,668.615h.426a1.391,1.391,0,0,0,1.413-1.417l-.036-2.029a.574.574,0,0,0-.359-.522l-.141-.056a.573.573,0,0,1-.127-1,1.41,1.41,0,0,1,.3-.15,23.518,23.518,0,0,1,8.148-2.036c2.853-.289,4.317-.383,5.061-.41a.574.574,0,0,0,.529-.731h0a.572.572,0,0,0-.616-.413c-1.833.224-8.358,1.016-10.492,1.513a12.574,12.574,0,0,0-3.572,1.507,1.671,1.671,0,0,0-.77,1.222.57.57,0,0,1-.246.424,2.994,2.994,0,0,1-.687.35c-.353.119-.346,1.345-.277,2.367A1.469,1.469,0,0,0,1086.228,668.615Z" transform="translate(-1080.81 -608.076)" fill="#a2b7ed"/>
      <path id="Path_2459" data-name="Path 2459" d="M1180.592,668.615h-.306a1.5,1.5,0,0,1-1.529-1.533l.034-1.912a.574.574,0,0,1,.357-.522l.141-.056a.573.573,0,0,0,.127-.993,1.383,1.383,0,0,0-.3-.152,23.187,23.187,0,0,0-8.074-2.036c-2.822-.289-4.273-.383-5.009-.41a.571.571,0,0,1-.441-.235.576.576,0,0,1-.089-.493h0a.572.572,0,0,1,.619-.415c1.824.224,8.28,1.016,10.383,1.513a12.4,12.4,0,0,1,3.534,1.507,1.674,1.674,0,0,1,.761,1.222.572.572,0,0,0,.245.424,2.963,2.963,0,0,0,.67.35c.353.119.342,1.377.272,2.394a1.44,1.44,0,0,1-1.4,1.35Z" transform="translate(-1143.529 -608.076)" fill="#a2b7ed"/>
      <path id="Path_2460" data-name="Path 2460" d="M1155.277,613l-.045,16.973a.4.4,0,0,1-.4.4h-.089a.4.4,0,0,0-.4.415l.071,2.865a1.313,1.313,0,0,0,1.288,1.282l.893.013a1.342,1.342,0,0,0,1.364-1.4l-.1-2.787a.4.4,0,0,0-.4-.39h0a.4.4,0,0,1-.4-.406l.047-17.406a.4.4,0,0,0-.406-.406h-1.025a.4.4,0,0,0-.4.422Z" transform="translate(-1134.871 -571.076)" fill="#a2b7ed"/>
      <path id="Path_2461" data-name="Path 2461" d="M1087.548,667.485s-13.655,5.522-15.809,7.353-2.507,2.991-2.409,3.482c0,.052.082.09.187.114a1.206,1.206,0,0,1,.877,1.2l-.049,2.888a.817.817,0,0,1-.813.8h-1.54a.817.817,0,0,1-.815-.8l-.049-2.869a1.221,1.221,0,0,1,1.031-1.231h.027a7.578,7.578,0,0,1,1.364-2.914c.828-.744,2.281-2.406,8-4.9s9.994-4.071,9.994-4.071Z" transform="translate(-1067.129 -613.257)" fill="#bac5f4"/>
      <path id="Path_2462" data-name="Path 2462" d="M1166.38,668.286a.448.448,0,0,0,.275.419c1.875.807,12.773,5.54,14.635,7.212,2.038,1.832,2.371,2.991,2.279,3.482-.02.112-.322.157-.592.173a.448.448,0,0,0-.424.464l.049,3.062a1.327,1.327,0,0,0,1.324,1.309h.386a1.315,1.315,0,0,0,1.313-1.3l.052-3.051a.448.448,0,0,0-.382-.448l-.337-.056a.447.447,0,0,1-.366-.33,6.846,6.846,0,0,0-1.219-2.639c-.783-.749-2.159-2.406-7.57-4.9-4.146-1.912-7.472-3.28-8.8-3.811a.447.447,0,0,0-.623.426Z" transform="translate(-1144.224 -614.271)" fill="#bac5f4"/>
    </g>
    <g id="table" transform="translate(22.372 77.618)">
      <path id="Path_2463" data-name="Path 2463" d="M173.97,421.249l.223-39.009h5.134v39.233Z" transform="translate(-158.344 -374.169)" fill="#fff"/>
      <path id="Path_2464" data-name="Path 2464" d="M705.05,379.14l.205,40.152h4.465l.1-39.989Z" transform="translate(-570.869 -371.764)" fill="#fff"/>
      <path id="Path_2465" data-name="Path 2465" d="M103.97,361.24v4.708l153.584-.448v-4.035Z" transform="translate(-103.97 -357.877)" fill="#fff"/>
      <path id="Path_2466" data-name="Path 2466" d="M103.97,349.6l10.938-3.363,130.145.224,12.5,3.363Z" transform="translate(-103.97 -346.24)" fill="#bac5f4"/>
      <path id="Path_2467" data-name="Path 2467" d="M416.45,349.712l2.574-1.574,11.854-.078-1.788,1.529Z" transform="translate(-346.694 -347.652)" fill="#f8f8ff"/>
    </g>
    <g id="Flower" transform="translate(25.721 56.677)">
      <path id="Path_2468" data-name="Path 2468" d="M801.275,479.407s-1.94-.09-2.19.538a56.3,56.3,0,0,0,.75,9.7c.3.507,3.4.655,4.27.655a20.091,20.091,0,0,0,3.4-.511c.158-.222,2.355-9.077,1.636-10.261s-7.753-.09-7.753-.09" transform="translate(-793.89 -466.783)" fill="#e9edfc"/>
      <path id="Path_2469" data-name="Path 2469" d="M798.56,483.332a65.182,65.182,0,0,0,6.739.26c.712-.2.478-2.018.478-2.018l3-.134a7.079,7.079,0,0,1-.2,1.95,2.844,2.844,0,0,0-.511.924c0,.1-1.266,7.522-1.266,7.522s-1.94.3-2.2.269c-.3-.038.808-6.136.808-6.56s0-1.231-.306-1.231-6.215.179-6.25-.484a1.107,1.107,0,0,0-.288-.493" transform="translate(-793.524 -468.695)" fill="#bac4f6"/>
      <path id="Path_2470" data-name="Path 2470" d="M783.408,466.691a8.7,8.7,0,0,0-2.574-1.294c-.893-.108-1.933-.222-2.826-.363s-2.031-.54-2.009-1.065a1.093,1.093,0,0,1,.654-1.087,3.53,3.53,0,0,1,1.467-.545c.393-.036,4.424,1.016,6.105,3.529l.67.825Z" transform="translate(-775.999 -453.874)" fill="#bac4f6"/>
      <path id="Path_2471" data-name="Path 2471" d="M783.14,468.689a9.727,9.727,0,0,1,2.391.256,13.529,13.529,0,0,1,1.92.9l2.529,1.769" transform="translate(-781.546 -458.803)" fill="#bac4f6"/>
      <path id="Path_2472" data-name="Path 2472" d="M783.14,468.689a9.727,9.727,0,0,1,2.391.256,13.529,13.529,0,0,1,1.92.9l2.529,1.769" transform="translate(-781.546 -458.803)" fill="none" stroke="#fff" stroke-linecap="round" stroke-miterlimit="10" stroke-width="0.75"/>
      <path id="Path_2473" data-name="Path 2473" d="M794.641,450.74s-1.956-2.668-2.717-3.419-1.652-1.61-2.386-2.394-1.661-1.91-1.27-2.372.67-.776,1.382-.673a3.367,3.367,0,0,1,1.552.576c.4.256,3.944,3.657,4.465,7.564l.511.791Z" transform="translate(-785.457 -437.991)" fill="#bac4f6"/>
      <path id="Path_2474" data-name="Path 2474" d="M796.55,449a8.4,8.4,0,0,1,2.121,1.794c.565.82,1.46,2.289,1.46,2.289l1.016,2.8" transform="translate(-791.962 -443.528)" fill="none" stroke="#fff" stroke-linecap="round" stroke-miterlimit="10" stroke-width="0.75"/>
      <path id="Path_2475" data-name="Path 2475" d="M801.665,438.716s-2.284-4.979-2.71-5.963-2.17-2.466-2.556-3.47-.632-1.735-.223-2.287a1.968,1.968,0,0,1,2.128-.673,6.681,6.681,0,0,1,1.806,1.728c.279.377,2.15,7.14,2,8.7l.357,2Z" transform="translate(-791.508 -425.846)" fill="#e9edfc"/>
      <path id="Path_2476" data-name="Path 2476" d="M803.48,435a16.083,16.083,0,0,1,1.708,2.69c.447,1.121.893,3.257.835,2.914l1.368,4.612" transform="translate(-797.345 -432.667)" fill="none" stroke="#fff" stroke-linecap="round" stroke-miterlimit="10" stroke-width="0.75"/>
      <path id="Path_2477" data-name="Path 2477" d="M788.138,458.33a15.888,15.888,0,0,0-2.989-2.749c-.98-.446-2.094-.951-3.051-1.43s-2.107-1.294-1.913-1.782.4-.686,1.085-.778a4.692,4.692,0,0,1,1.822.049c.447.117,4.643,2.663,5.722,5.688l.5,1.042Z" transform="translate(-779.233 -445.486)" fill="#e9edfc"/>
      <path id="Path_2478" data-name="Path 2478" d="M788.56,457.14a13.586,13.586,0,0,1,2.6,1.161,17.6,17.6,0,0,1,1.866,1.583l1.931,2.829" transform="translate(-785.756 -449.843)" fill="none" stroke="#fff" stroke-linecap="round" stroke-miterlimit="10" stroke-width="0.75"/>
      <path id="Path_2479" data-name="Path 2479" d="M833.783,467.708a10.273,10.273,0,0,1,2.786-1.235c.967-.114,2.087-.211,3.054-.348s2.2-.516,2.174-1.018a1.036,1.036,0,0,0-.708-1.04,4.152,4.152,0,0,0-1.587-.52c-.426-.034-4.788.969-6.608,3.363l-.734.789Z" transform="translate(-819.623 -454.813)" fill="#bac4f6"/>
      <path id="Path_2480" data-name="Path 2480" d="M842.96,469.619a11.816,11.816,0,0,0-2.587.244,15.568,15.568,0,0,0-2.076.852l-2.426,1.637" transform="translate(-822.505 -459.524)" fill="#bac4f6"/>
      <path id="Path_2481" data-name="Path 2481" d="M842.96,469.619a11.816,11.816,0,0,0-2.587.244,15.568,15.568,0,0,0-2.076.852l-2.426,1.637" transform="translate(-822.505 -459.524)" fill="none" stroke="#fff" stroke-linecap="round" stroke-miterlimit="10" stroke-width="0.75"/>
      <path id="Path_2482" data-name="Path 2482" d="M825.053,452.465s2.114-2.547,2.938-3.264,1.786-1.538,2.583-2.287,1.8-1.823,1.373-2.267a1.517,1.517,0,0,0-1.5-.648,3.949,3.949,0,0,0-1.679.549c-.426.242-4.268,3.493-4.831,7.223l-.551.755Z" transform="translate(-812.811 -439.635)" fill="#bac4f6"/>
      <path id="Path_2483" data-name="Path 2483" d="M835.814,450.79a9.035,9.035,0,0,0-2.295,1.7c-.612.785-1.578,2.186-1.578,2.186l-1.1,2.672" transform="translate(-818.598 -444.917)" fill="none" stroke="#fff" stroke-linecap="round" stroke-miterlimit="10" stroke-width="0.75"/>
      <path id="Path_2484" data-name="Path 2484" d="M823.112,441.03s2.471-4.755,2.931-5.7,2.348-2.349,2.766-3.314.683-1.659.246-2.184a2.321,2.321,0,0,0-2.3-.65,7.114,7.114,0,0,0-1.956,1.65c-.3.361-2.326,6.818-2.161,8.311l-.386,1.908Z" transform="translate(-811.925 -428.075)" fill="#e9edfc"/>
      <path id="Path_2485" data-name="Path 2485" d="M816.731,437.487a40.393,40.393,0,0,1,.67-6.147c.319-1,.632-2.69,1.049-3.643a3.019,3.019,0,0,0-.652-2.733c-.429-.527-1.563-.426-2.295-.114a2.526,2.526,0,0,0-1.163,1.764c-.078.466,1.563,6.064,1.388,8.113l.141,2.789Z" transform="translate(-805.779 -424.592)" fill="#bac4f6"/>
      <path id="Path_2486" data-name="Path 2486" d="M830.486,437.44a15.4,15.4,0,0,0-1.848,2.567,22.741,22.741,0,0,0-.893,2.775l-1.605,4.529" transform="translate(-814.947 -434.56)" fill="none" stroke="#fff" stroke-linecap="round" stroke-miterlimit="10" stroke-width="0.75"/>
      <path id="Path_2487" data-name="Path 2487" d="M827.77,459.727A16.951,16.951,0,0,1,831,457.1c1.047-.426,2.266-.9,3.3-1.365s2.279-1.235,2.069-1.7-.426-.655-1.174-.744a5.742,5.742,0,0,0-1.971.047c-.491.112-5.023,2.542-6.19,5.432l-.538,1Z" transform="translate(-815.227 -446.808)" fill="#e9edfc"/>
      <path id="Path_2488" data-name="Path 2488" d="M837.564,458.6a15.907,15.907,0,0,0-2.815,1.108,18.638,18.638,0,0,0-2.009,1.511l-2.13,2.372" transform="translate(-818.419 -450.976)" fill="none" stroke="#fff" stroke-linecap="round" stroke-miterlimit="10" stroke-width="0.75"/>
      <path id="Path_2489" data-name="Path 2489" d="M823,430.16a32.866,32.866,0,0,1,.158,5.044c-.091.448-.047,3.244-.047,3.244l-.078,3.109" transform="translate(-812.508 -428.912)" fill="none" stroke="#fff" stroke-linecap="round" stroke-miterlimit="10" stroke-width="0.75"/>
    </g>
    <g id="computer" transform="translate(72.119 56.154)">
      <rect id="Rectangle_881" data-name="Rectangle 881" width="24.529" height="19.339" transform="translate(0)" fill="#fff"/>
      <ellipse id="Ellipse_139" data-name="Ellipse 139" cx="1.473" cy="1.48" rx="1.473" ry="1.48" transform="translate(11.002 8.342)" fill="#f5f5fc"/>
      <path id="Path_2490" data-name="Path 2490" d="M1014.77,506.47s.616,1.63-.087,2.087-5.045,2.177-5.045,2.177-.321.518.446.684c.685.15,9.49.031,11.385,0a.64.64,0,0,0,.632-.386c.045-.159-.011-.334-.348-.448-.583-.211-2.726-1.383-3.663-1.89a1.107,1.107,0,0,1-.484-.841c-.107-.509-.187-1.072.17-1.179.558-.168-2.971.052-2.971.052" transform="translate(-1003.828 -487.591)" fill="#fff"/>
    </g>
    <g id="books" transform="translate(60.804 34.215)">
      <path id="Path_2491" data-name="Path 2491" d="M279.787,204.2l63.8-.1-.129-10.718-67.291.522-.04,10.3Z" transform="translate(-276.13 -184.247)" fill="#e9edfa"/>
      <path id="Path_2492" data-name="Path 2492" d="M435.48,201.96v7.38l30.02-.1v-7.174Z" transform="translate(-399.908 -190.903)" fill="#bac5f4"/>
      <path id="Path_2493" data-name="Path 2493" d="M291.73,201.96v7.38l30.02-.1v-7.174Z" transform="translate(-288.248 -190.903)" fill="#bac5f4"/>
      <path id="Path_2494" data-name="Path 2494" d="M291.732,209.89H293.3l.016,5.62-1.583-.018Z" transform="translate(-288.248 -197.055)" fill="#fff"/>
      <path id="Path_2495" data-name="Path 2495" d="M298.833,214.28h1.054l.038,4.612-1.105.025Z" transform="translate(-293.755 -200.461)" fill="#f5f5fc"/>
      <path id="Path_2496" data-name="Path 2496" d="M417.49,209.7h.92l.009,5.618-.929-.016Z" transform="translate(-385.934 -196.908)" fill="#fff"/>
      <path id="Path_2497" data-name="Path 2497" d="M421.663,214.09h1.054l.038,4.612-1.1.022Z" transform="translate(-389.165 -200.314)" fill="#f5f5fc"/>
      <path id="Path_2498" data-name="Path 2498" d="M303.933,211.06h1.054l.038,5.347-1.1.027Z" transform="translate(-297.716 -197.963)" fill="#f5f5fc"/>
      <path id="Path_2499" data-name="Path 2499" d="M308.6,215.285l.54-.435,2.735,4.011-.589.48Z" transform="translate(-301.352 -200.903)" fill="#fff"/>
      <path id="Path_2500" data-name="Path 2500" d="M365.78,232.192h6.581l-.033-.742-6.547.036Z" transform="translate(-345.767 -213.782)" fill="#fff"/>
      <path id="Path_2501" data-name="Path 2501" d="M370.74,228.952h6.583l-.036-.742-6.547.036Z" transform="translate(-349.62 -211.268)" fill="#e9edfa"/>
      <path id="Path_2502" data-name="Path 2502" d="M440.192,208.69h.924l.009,5.914-.935-.018Z" transform="translate(-403.566 -196.124)" fill="#fff"/>
      <path id="Path_2503" data-name="Path 2503" d="M444.376,214.31h1.051l.038,4.609-1.1.025Z" transform="translate(-406.806 -200.484)" fill="#f5f5fc"/>
      <path id="Path_2504" data-name="Path 2504" d="M561.02,209.57h.92l.009,5.618-.929-.016Z" transform="translate(-497.423 -196.807)" fill="#fff"/>
      <path id="Path_2505" data-name="Path 2505" d="M565.12,213.6l1.1.011.042,4.659-1.121.016Z" transform="translate(-500.608 -199.933)" fill="#f5f5fc"/>
      <path id="Path_2506" data-name="Path 2506" d="M556.217,215.69h1.054l.042,4.244-1.123.013Z" transform="translate(-493.672 -201.555)" fill="#f5f5fc"/>
      <path id="Path_2507" data-name="Path 2507" d="M435.393,211.12h1.054l.038,5.347-1.105.027Z" transform="translate(-399.83 -198.009)" fill="#f5f5fc"/>
      <path id="Path_2508" data-name="Path 2508" d="M484.35,215.355l.54-.435,2.735,4.011-.589.48Z" transform="translate(-437.868 -200.958)" fill="#fff"/>
      <path id="Path_2509" data-name="Path 2509" d="M464.37,232.262h6.583l-.036-.742-6.547.036Z" transform="translate(-422.349 -213.836)" fill="#fff"/>
      <path id="Path_2510" data-name="Path 2510" d="M462.75,229.142h6.581l-.036-.742-6.545.036Z" transform="translate(-421.09 -211.415)" fill="#e9edfa"/>
      <path id="Path_2511" data-name="Path 2511" d="M577.835,161.229l-.065-8.589h59.824l.147,20.522-59.855.491-.051-11.66" transform="translate(-510.434 -152.64)" fill="#e9edfa"/>
      <path id="Path_2512" data-name="Path 2512" d="M1039.715,335.94s-.576-.193-.623-.336-.239-.964.143-.964h3.264s.527.868-.143,1.06-.1.529.1.529.623,0,.719.24.089,5.3.089,5.3h-4.84v-4.908a.522.522,0,0,1,.151-.377.517.517,0,0,1,.375-.152C1039.475,336.326,1039.86,336.182,1039.715,335.94Z" transform="translate(-1014.922 -332.344)" fill="#e9edfa"/>
      <rect id="Rectangle_882" data-name="Rectangle 882" width="3.395" height="2.114" transform="translate(24.212 5.54)" fill="#fff"/>
      <path id="Path_2513" data-name="Path 2513" d="M1064.494,335.94s-.576-.193-.623-.336-.239-.964.143-.964h3.264s.527.868-.143,1.06-.1.529.1.529.623,0,.719.24.089,5.3.089,5.3h-4.84v-4.908a.519.519,0,0,1,.527-.529C1064.271,336.326,1064.646,336.182,1064.494,335.94Z" transform="translate(-1034.17 -332.344)" fill="#bac5f4"/>
      <rect id="Rectangle_883" data-name="Rectangle 883" width="3.395" height="2.114" transform="translate(29.75 5.54)" fill="#fff"/>
      <path id="Path_2514" data-name="Path 2514" d="M1090.155,335.67s-.576-.193-.623-.336-.239-.964.143-.964h3.264s.526.868-.143,1.06-.1.529.1.529.623,0,.719.24.089,5.3.089,5.3h-4.839v-4.908a.519.519,0,0,1,.527-.529C1089.914,336.056,1090.3,335.912,1090.155,335.67Z" transform="translate(-1054.103 -332.135)" fill="#e9edfa"/>
      <rect id="Rectangle_884" data-name="Rectangle 884" width="3.395" height="2.114" transform="translate(35.472 5.477)" fill="#fff"/>
      <rect id="Rectangle_885" data-name="Rectangle 885" width="27.641" height="16.953" transform="translate(69.459 2.087)" fill="#bac5f4"/>
      <ellipse id="Ellipse_140" data-name="Ellipse 140" cx="1.205" cy="1.211" rx="1.205" ry="1.211" transform="translate(98.854 9.793)" fill="#bac5f4"/>
      <path id="Path_2515" data-name="Path 2515" d="M1322.495,378.88s-.576-.193-.623-.336-.239-.964.143-.964h3.263s.527.868-.143,1.06-.1.529.1.529.623,0,.719.24.089,5.3.089,5.3h-4.84V379.8a.519.519,0,0,1,.527-.529C1322.249,379.266,1322.633,379.12,1322.495,378.88Z" transform="translate(-1234.577 -365.658)" fill="#fff"/>
      <rect id="Rectangle_886" data-name="Rectangle 886" width="3.395" height="2.114" transform="translate(87.331 15.164)" fill="#f5f5fc"/>
    </g>
  </g>
</svg>
