<svg xmlns="http://www.w3.org/2000/svg" xml:space="preserve" id="Layer_1" x="0" y="0"
    style="enable-background:new 0 0 16 16" version="1.1" viewBox="0 0 16 16">
    <path
        d="M9.1 11.3c-.2 0-.3 0-.5-.1-.1-.1-.2-.3-.1-.4v-.4c0-.1.1-.3.1-.4L9 8.5c0-.1.1-.3.1-.4v-.3c.1-.4-.1-.6-.3-.8-.3-.2-.6-.3-1-.3-.2 0-.5 0-.7.1-.2.1-.5.2-.8.3l-.1.5c.1 0 .2-.1.3-.1.1 0 .2-.1.3-.1.2 0 .3 0 .5.1.1.1.1.3.1.4v.4c0 .1-.1.3-.1.4l-.4 1.5c0 .1-.1.3-.1.4v.4c0 .3.1.6.4.8.3.2.6.3 1 .3.2 0 .5 0 .7-.1.2-.1.5-.2.8-.3l.1-.5c-.1 0-.2.1-.3.1h-.4zM9.5 4.3c-.2-.2-.4-.3-.7-.3-.3 0-.5.1-.7.3-.4.3-.4.8-.1 1.2l.1.1c.4.4 1 .4 1.5 0 .3-.3.3-.9-.1-1.3.1 0 .1 0 0 0z"
        fill="currentColor" />
    <path
        d="M8 0C3.6 0 0 3.6 0 8s3.6 8 8 8 8-3.6 8-8-3.6-8-8-8zm0 15.3C4 15.3.7 12 .7 8S4 .7 8 .7 15.3 4 15.3 8 12 15.3 8 15.3z"
        fill="currentColor" />
</svg>