<svg xmlns="http://www.w3.org/2000/svg" viewBox="0 0 13 13" style="enable-background:new 0 0 13 13" xml:space="preserve"><path d="M1.9 1.9c-2.5 2.5-2.5 6.7 0 9.2 2.5 2.5 6.7 2.5 9.2 0 2.5-2.5 2.5-6.7 0-9.2-2.5-2.5-6.7-2.5-9.2 0zm4.9.8c.5 0 1 .5 1 1s-.5 1-1 1-1-.5-1-1 .4-1 1-1zm1.4 6.7c0 .1-.1.2-.1.2-.4.4-.8.6-1.3.6h-.7c-.4-.1-.9-.5-.8-1.1.1-.4.1-.7.2-1.1.1-.6.2-1.2.3-1.9V6c0-.3-.1-.4-.3-.4-.1 0-.2 0-.3-.1-.1 0-.2-.2-.2-.2 0-.1.1-.2.2-.2h2.1c.2 0 .4.1.4.3 0 .2 0 .4-.1.6-.3.8-.4 1.5-.5 2.2-.1.3-.1.5-.1.7v.3c0 .2.2.2.3.2.1 0 .2-.1.4-.1.1 0 .2-.1.3-.1.1 0 .2.1.2.2z" style="fill:currentColor"/></svg>