<svg viewBox="0 0 16 16" fill="fill:currentColor" xmlns="http://www.w3.org/2000/svg">
<path  fill="fill:currentColor" d="M9.76216 6.23646C9.57263 6.04581 9.36248 5.87681 9.13562 5.73256C8.53473 5.34778 7.83616 5.14332 7.12264 5.14332C6.13228 5.14147 5.18217 5.53497 4.48311 6.23646L1.09172 9.63051C0.393844 10.3297 0.00160222 11.2771 0.000977335 12.265C-0.000334929 14.3265 1.66974 15.9987 3.73124 16C4.72007 16.0035 5.6693 15.6118 6.36812 14.9122L9.16761 12.1127C9.21848 12.0623 9.24688 11.9935 9.24647 11.9219C9.24563 11.7746 9.12556 11.656 8.9783 11.6568H8.87167C8.28677 11.6589 7.70709 11.5465 7.16532 11.3262C7.06549 11.2851 6.95076 11.3083 6.87471 11.3849L4.86173 13.4005C4.23665 14.0256 3.22321 14.0256 2.59814 13.4005C1.97306 12.7754 1.97306 11.762 2.59814 11.1369L6.00287 7.73485C6.62744 7.11106 7.63923 7.11106 8.26381 7.73485C8.68473 8.131 9.3413 8.131 9.76219 7.73485C9.94329 7.5536 10.0531 7.31321 10.0715 7.05763C10.0909 6.75222 9.97831 6.45311 9.76216 6.23646Z" />
<path d="M14.9055 1.09333C13.4477 -0.364442 11.0842 -0.364442 9.62647 1.09333L6.82962 3.88748C6.75282 3.96465 6.73067 4.08073 6.77363 4.18077C6.81609 4.2811 6.91533 4.34549 7.02425 4.3434H7.12288C7.70709 4.34234 8.28583 4.45554 8.82658 4.67668C8.9264 4.71777 9.04113 4.69459 9.11718 4.61804L11.1248 2.61305C11.7499 1.98798 12.7633 1.98798 13.3884 2.61305C14.0135 3.23813 14.0135 4.25157 13.3884 4.87665L10.8875 7.37486L10.8662 7.39885L9.99168 8.26804C9.36711 8.89183 8.35532 8.89183 7.73074 8.26804C7.30982 7.87189 6.65325 7.87189 6.23236 8.26804C6.05011 8.45066 5.94022 8.69315 5.92307 8.95057C5.90357 9.25599 6.01621 9.55509 6.23236 9.77177C6.54096 10.0817 6.90202 10.3344 7.29882 10.5183C7.35481 10.5449 7.4108 10.5663 7.46679 10.5903C7.52278 10.6143 7.58143 10.6329 7.63742 10.6543C7.69341 10.6756 7.75205 10.6943 7.80804 10.7103L7.96536 10.7529C8.07199 10.7796 8.17866 10.8009 8.28796 10.8195C8.41962 10.8391 8.55222 10.8516 8.68523 10.8569H8.87185H8.88785L9.04782 10.8382C9.10646 10.8356 9.1678 10.8222 9.23713 10.8222H9.32777L9.51174 10.7956L9.59706 10.7796L9.75169 10.7476H9.78103C10.4359 10.5831 11.034 10.244 11.5114 9.76643L14.9054 6.37238C16.3633 4.91461 16.3633 2.5511 14.9055 1.09333Z"   fill="fill:currentColor"/>
</svg>
