<svg id="Lock" xmlns="http://www.w3.org/2000/svg" width="24" height="24" viewBox="0 0 24 24">
  <path id="Icon_ionic-ios-lock" data-name="Icon ionic-ios-lock" d="M17.25,8.567h-.9V6.883a3.6,3.6,0,0,0-7.2-.047V8.567h-.9a1.476,1.476,0,0,0-1.5,1.442v6.923a1.476,1.476,0,0,0,1.5,1.442h9a1.476,1.476,0,0,0,1.5-1.442V10.009A1.476,1.476,0,0,0,17.25,8.567Zm-3.975,4.5v2.481a.526.526,0,0,1-.5.519.517.517,0,0,1-.551-.5v-2.5a1.147,1.147,0,0,1-.671-1.143,1.2,1.2,0,0,1,2.4.1A1.148,1.148,0,0,1,13.275,13.067Zm2.025-4.5H10.2V6.836a2.385,2.385,0,0,1,.75-1.731,2.607,2.607,0,0,1,3.6,0,2.385,2.385,0,0,1,.75,1.731Z" transform="translate(-0.75 0.625)" fill="#505d6e"/>
  <rect id="Rectangle_11292" data-name="Rectangle 11292" width="24" height="24" fill="none"/>
</svg>
