<svg version="1.1" id="Component_173_2" xmlns="http://www.w3.org/2000/svg" x="0" y="0" viewBox="0 0 15.8 16"
  xml:space="preserve">
  <g id="Icon_ionic-ios-notifications" transform="rotate(30 34.134 5.606)">
    <path id="Path_43416" class="st0" d="M13.7 28.5c1.9 0 3-1 3-2.5h-6c-.1 1.5 1 2.5 3 2.5z" />
    <path id="Path_43417" class="st0"
      d="M21.4 23.8c-.8-.9-2.3-1.4-2.3-5.3 0-4-2.1-5.6-4-6-.2 0-.3-.1-.3-.3v-.1c-.1-.6-.6-1.1-1.2-1.1s-1.2.4-1.2 1.1v.1c0 .2-.1.2-.3.3-1.9.4-4 2-4 6 0 3.9-1.5 4.4-2.3 5.3-.5.6 0 1.4.8 1.4h14c.9 0 1.3-.8.8-1.4z" />
  </g>
</svg>