<svg id="Component_173_1" data-name="Component 173 – 1" xmlns="http://www.w3.org/2000/svg" width="24" height="24"
  viewBox="0 0 24 24">
  <g id="Icon_ionic-ios-notifications" data-name="Icon ionic-ios-notifications" transform="translate(-5.989 -10.257)">
    <path id="Path_43416" data-name="Path 43416"
      d="M17.607,30.836c1.938,0,3-1.038,3-2.5h-6C14.6,29.8,15.663,30.836,17.607,30.836Z"
      transform="translate(0.386 -0.273)" fill="#95acc5" />
    <path id="Path_43417" data-name="Path 43417"
      d="M22.558,16.573c-.77-.866-2.286-1.374-2.286-5.253,0-3.981-2.061-5.581-3.981-5.965-.18-.038-.31-.09-.31-.252V4.98a1.15,1.15,0,0,0-1.22-1.05,1.147,1.147,0,0,0-1.22,1.05V5.1c0,.158-.13.213-.31.252C11.3,5.744,9.249,7.34,9.249,11.321c0,3.879-1.515,4.382-2.286,5.253-.5.559-.025,1.357.8,1.357h14.01C22.583,17.93,23.053,17.128,22.558,16.573Z"
      transform="translate(3.229 9.327)" fill="#95acc5" />
  </g>
  <rect id="Rectangle_11322" data-name="Rectangle 11322" width="24" height="24" fill="none" />
</svg>