<svg xmlns="http://www.w3.org/2000/svg" width="24" height="24" viewBox="0 0 24 24">
    <defs>
        <style>
            .cls-2{fill:#8ea6c1}
        </style>
    </defs>
    <g id="Group_2379" data-name="Group 2379" transform="translate(-3170 -4987)">
        <path id="Rectangle_1164" data-name="Rectangle 1164" transform="translate(3170 4987)" style="fill:none" d="M0 0h24v24H0z"/>
        <g id="Group_2372" data-name="Group 2372" transform="translate(23.876 -70.353)">
            <path id="Path_1018" data-name="Path 1018" class="cls-2" d="M3.13 2.557A3.2 3.2 0 0 0 6.262 0H0a3.2 3.2 0 0 0 3.13 2.557z" transform="rotate(30 -7894.619 8417.257)"/>
            <path id="Path_1019" data-name="Path 1019" class="cls-2" d="M16.041 13.6a1.034 1.034 0 0 0-.351-1.008 6.128 6.128 0 0 1-2.137-4.082A6.42 6.42 0 0 1 7.922 0a5.492 5.492 0 0 0-5.373 5.5v2.376A6.189 6.189 0 0 1 .358 12.6a1.027 1.027 0 0 0-.321 1.055zm0 0a1.1 1.1 0 0 1-1.1.811H1.117a1.1 1.1 0 0 1-1.08-.75z" transform="rotate(30 -7863.717 8415.735)"/>
        </g>
    </g>
</svg>
