<?xml version="1.0" encoding="utf-8"?>
<!-- Generator: Adobe Illustrator 25.0.0, SVG Export Plug-In . SVG Version: 6.00 Build 0)  -->
<svg version="1.1" id="Layer_1" xmlns="http://www.w3.org/2000/svg" xmlns:xlink="http://www.w3.org/1999/xlink" x="0px" y="0px"
	 viewBox="0 0 28.46 28.46" style="enable-background:new 0 0 28.46 28.46;" xml:space="preserve">
<style type="text/css">
	.st0{fill:url(#SVGID_1_);}
	.st1{fill:url(#SVGID_2_);}
</style>
<g transform="matrix(1.3333 0 0 -1.3333 0 107.2)">
	
		<linearGradient id="SVGID_1_" gradientUnits="userSpaceOnUse" x1="-703.0947" y1="-345.3264" x2="-702.7183" y2="-345.3264" gradientTransform="matrix(0 -73.2568 -73.2568 0 -25288.6289 -51426.4375)">
		<stop  offset="0" style="stop-color:#FF1B2D"/>
		<stop  offset="0.3" style="stop-color:#FF1B2D"/>
		<stop  offset="0.614" style="stop-color:#FF1B2D"/>
		<stop  offset="1" style="stop-color:#A70014"/>
	</linearGradient>
	<path class="st0" d="M10.67,80.4C4.78,80.4,0,75.62,0,69.73c0-5.72,4.51-10.39,10.16-10.66c0.17-0.01,0.34-0.01,0.51-0.01
		c2.73,0,5.22,1.03,7.11,2.72c-1.25-0.83-2.71-1.31-4.28-1.31c-2.54,0-4.82,1.26-6.35,3.25c-1.18,1.39-1.94,3.45-2,5.76v0.5
		c0.05,2.31,0.82,4.37,2,5.76c1.53,1.99,3.81,3.25,6.35,3.25c1.56,0,3.03-0.48,4.28-1.31c-1.88,1.68-4.36,2.71-7.07,2.72
		C10.7,80.4,10.68,80.4,10.67,80.4L10.67,80.4z"/>
	
		<linearGradient id="SVGID_2_" gradientUnits="userSpaceOnUse" x1="-702.4246" y1="-346.4267" x2="-702.0482" y2="-346.4267" gradientTransform="matrix(0 -64.7917 -64.7917 0 -22431.3281 -45432.4648)">
		<stop  offset="0" style="stop-color:#9C0000"/>
		<stop  offset="0.7" style="stop-color:#FF4B4B"/>
		<stop  offset="1" style="stop-color:#FF4B4B"/>
	</linearGradient>
	<path class="st1" d="M7.16,75.74c0.98,1.16,2.24,1.85,3.63,1.85c3.11,0,5.62-3.52,5.62-7.87c0-4.34-2.52-7.87-5.62-7.87
		c-1.38,0-2.65,0.7-3.63,1.85c1.53-1.99,3.81-3.25,6.35-3.25c1.56,0,3.03,0.48,4.28,1.31c2.18,1.95,3.56,4.79,3.56,7.96
		c0,3.16-1.38,6-3.56,7.96c-1.25,0.83-2.71,1.31-4.28,1.31C10.97,78.99,8.69,77.73,7.16,75.74"/>
</g>
</svg>
