<svg id="Component_61_1" data-name="Component 61 – 1" xmlns="http://www.w3.org/2000/svg" width="24" height="24" viewBox="0 0 24 24">
  <rect id="Rectangle_919" data-name="Rectangle 919" fill="none" width="24" height="24"/>
  <g id="pencil" transform="translate(6.001 5.754)">
    <path id="Path_1944" data-name="Path 1944" fill="currentColor" d="M7.41,82.473l-6.6,6.6a.263.263,0,0,0-.069.121L.007,92.134a.26.26,0,0,0,.252.323.258.258,0,0,0,.063-.008l2.937-.732a.26.26,0,0,0,.121-.069l6.6-6.6Zm0,0" transform="translate(0 -80.223)"/>
    <path id="Path_1945" data-name="Path 1945" fill="currentColor" d="M337.8,1.35l-.735-.735a1.331,1.331,0,0,0-1.838,0l-.9.9L336.9,4.088l.9-.9a1.3,1.3,0,0,0,0-1.838Zm0,0" transform="translate(-326.182 0)"/>
  </g>
</svg>
