<svg id="Layer_1" data-name="Layer 1" xmlns="http://www.w3.org/2000/svg" viewBox="0 0 16 12"><defs><clipPath id="clip-path"><path style="fill:none" d="M0 0h16v12H0z"/></clipPath><style>.cls-3{fill:currentColor}</style></defs><g style="clip-path:url(#clip-path)"><path class="cls-3" d="M6.5 9.92A5.29 5.29 0 0 1 5.08 6h2.47L3.78 2 0 6h2.35A6.15 6.15 0 0 0 4 10.25a5.44 5.44 0 0 0 6.44 1.17 4.75 4.75 0 0 1-3.94-1.5ZM13.65 6A6.15 6.15 0 0 0 12 1.75 5.44 5.44 0 0 0 5.56.58a4.75 4.75 0 0 1 3.94 1.5A5.29 5.29 0 0 1 10.92 6H8.44l3.78 4L16 6Z"/></g></svg>