<svg xmlns="http://www.w3.org/2000/svg" viewBox="0 0 22 20" xml:space="preserve">
    <path
        d="M22 8.1V2c0-.6-.4-1-1-1s-1 .4-1 1v3.7l-2.9-2.8A9.96 9.96 0 0 0 11.4.1C9.3-.2 7.1.2 5.2 1.2 3.3 2.2 1.8 3.9.9 5.9c-.9 2-1.1 4.2-.6 6.3.5 2.1 1.6 4 3.3 5.4C5.2 19 7.3 19.9 9.4 20h.6c2 0 3.9-.6 5.5-1.7 1.8-1.2 3.2-3 3.9-5 .2-.5-.1-1.1-.6-1.3-.5-.2-1.1.1-1.3.6-.6 1.6-1.7 3-3.1 4-1.4 1-3.2 1.4-4.9 1.3-1.7-.1-3.4-.8-4.7-1.9-1.3-1.1-2.2-2.7-2.6-4.3-.4-1.7-.2-3.5.5-5C3.4 5.1 4.6 3.8 6.1 3c1.5-.8 3.3-1.2 5-.9 1.7.2 3.3 1 4.6 2.3L18.5 7H15c-.6 0-1 .4-1 1s.4 1 1 1h6c.1 0 .2 0 .2-.1h.1l.1-.1c.1 0 .2-.1.2-.2 0 0 0-.1.1-.1 0-.1.1-.1.1-.2.1 0 .2-.1.2-.2z" />
</svg>