<?xml version="1.0" encoding="utf-8"?>
<!-- Generator: Adobe Illustrator 25.0.0, SVG Export Plug-In . SVG Version: 6.00 Build 0)  -->
<svg version="1.1" id="Layer_1" xmlns="http://www.w3.org/2000/svg" xmlns:xlink="http://www.w3.org/1999/xlink" x="0px" y="0px"
	 viewBox="0 0 30 30" style="enable-background:new 0 0 30 30;" xml:space="preserve">
<style type="text/css">
	.st0{fill:url(#SVGID_1_);}
	.st1{fill:url(#SVGID_2_);}
	.st2{fill:none;stroke:#DEDEDD;stroke-width:0.665;stroke-linecap:round;stroke-linejoin:round;}
	.st3{fill:#DEDEDD;}
	.st4{fill:#EE4544;}
	.st5{fill:#CB2026;}
	.st6{fill:#ABABAB;}
</style>
<symbol  id="C" viewBox="-32 -32 64 64">
	<g>
		
			<linearGradient id="SVGID_1_" gradientUnits="userSpaceOnUse" x1="8048.25" y1="-8080.2026" x2="8048.25" y2="-8079.2339" gradientTransform="matrix(64 0 0 64 -515088 517104)">
			<stop  offset="0" style="stop-color:#F7F8F8"/>
			<stop  offset="1" style="stop-color:#CDCCCC"/>
		</linearGradient>
		<path class="st0" d="M-32,0c0-17.7,14.3-32,32-32S32-17.7,32,0S17.7,32,0,32S-32,17.7-32,0z"/>
		
			<radialGradient id="SVGID_2_" cx="8036.6045" cy="-8068.1196" r="0.55" gradientTransform="matrix(58.6681 0 0 58.6681 -471492.0625 473342.75)" gradientUnits="userSpaceOnUse">
			<stop  offset="0" style="stop-color:#69CCE3"/>
			<stop  offset="1" style="stop-color:#396FB6"/>
		</radialGradient>
		<path class="st1" d="M-29.3,0c0-16.2,13-29.3,29.2-29.3c0,0,0.1,0,0.1,0c16.2,0,29.3,13,29.3,29.2c0,0,0,0.1,0,0.1
			c0,16.2-13,29.3-29.2,29.3c0,0-0.1,0-0.1,0c-16.2,0-29.3-13-29.3-29.2C-29.3,0.1-29.3,0-29.3,0z"/>
	</g>
	<path class="st2" d="M0-27.5v4.7 M0,27.5v-4.7 M2.7-27.3l-0.2,2 M-2.7,27.3l0.2-2 M27.5,0h-4.7 M-27.5,0h4.7 M27.3,2.7l-2-0.2
		 M-27.3-2.7l2,0.2 M19.4-19.4l-3.3,3.3 M-19.4,19.4l3.3-3.3 M21.2-17.4l-1.5,1.3 M-21.2,17.4l1.5-1.3 M19.4,19.4l-3.3-3.3
		 M-19.4-19.4l3.3,3.3 M17.4,21.2l-1.3-1.5 M-17.4-21.2l1.3,1.5 M10.5-25.4l-1.8,4.3 M-10.5,25.4l1.8-4.3 M12.9-24.2L12-22.5
		 M-13,24.2l0.9-1.8 M25.4,10.5l-4.3-1.8 M-25.4-10.5l4.3,1.8 M24.2,13l-1.8-1 M-24.2-13l1.8,1 M25.4-10.5l-4.3,1.8 M-25.4,10.5
		l4.3-1.8 M26.3-8l-1.9,0.6 M-26.3,8l1.9-0.6 M10.5,25.4l-1.8-4.3 M-10.5-25.4l1.8,4.3 M8,26.3l-0.6-1.9 M-8-26.3l0.6,1.9 M5.3-26.9
		l-0.9,4.6 M-5.4,26.9l0.9-4.6 M8-26.3l-0.6,1.9 M-8,26.3l0.6-1.9 M26.9,5.4l-4.6-0.9 M-26.9-5.4l4.6,0.9 M26.3,8l-1.9-0.6 M-26.3-8
		l1.9,0.6 M22.8-15.3l-3.9,2.6 M-22.8,15.3l3.9-2.6 M24.2-13l-1.8,1 M-24.2,13l1.8-1 M15.3,22.8L12.7,19 M-15.3-22.8l2.6,3.9
		 M12.9,24.2L12,22.5 M-13-24.2l0.9,1.8 M15.3-22.8L12.7-19 M-15.3,22.8l2.6-3.9 M17.4-21.2l-1.3,1.5 M-17.4,21.2l1.3-1.5
		 M22.8,15.3l-3.9-2.6 M-22.8-15.3l3.9,2.6 M21.2,17.4l-1.5-1.3 M-21.2-17.4l1.5,1.3 M26.9-5.4l-4.6,0.9 M-26.9,5.4l4.6-0.9
		 M27.3-2.7l-2,0.2 M-27.3,2.7l2-0.2 M5.3,26.9l-0.9-4.6 M-5.4-26.9l0.9,4.6 M2.7,27.3l-0.2-2 M-2.7-27.3l0.2,2"/>
	<g>
		<path class="st3" d="M-2.9-2.9L0,0l-20.1,20.1L-2.9-2.9z"/>
		<path class="st4" d="M20.1-20.1L0,0l-2.9-2.9L20.1-20.1z"/>
		<path class="st5" d="M2.9,2.9L0,0l20.1-20.1L2.9,2.9z"/>
		<path class="st6" d="M2.9,2.9L0,0l-20.1,20.1L2.9,2.9z"/>
	</g>
</symbol>
<use xlink:href="#C"  width="64" height="64" x="-32" y="-32" transform="matrix(0.4688 0 0 0.4688 15 15)" style="overflow:visible;"/>
</svg>
