<?xml version="1.0" encoding="utf-8"?>
<!-- Generator: Adobe Illustrator 25.0.0, SVG Export Plug-In . SVG Version: 6.00 Build 0)  -->
<svg version="1.1"
	 id="svg8" xmlns:cc="http://creativecommons.org/ns#" xmlns:dc="http://purl.org/dc/elements/1.1/" xmlns:inkscape="http://www.inkscape.org/namespaces/inkscape" xmlns:rdf="http://www.w3.org/1999/02/22-rdf-syntax-ns#" xmlns:sodipodi="http://sodipodi.sourceforge.net/DTD/sodipodi-0.dtd" xmlns:svg="http://www.w3.org/2000/svg"
	 xmlns="http://www.w3.org/2000/svg" xmlns:xlink="http://www.w3.org/1999/xlink" x="0px" y="0px" viewBox="0 0 177.9 177.9"
	 style="enable-background:new 0 0 177.9 177.9;" xml:space="preserve">
<style type="text/css">
	.st0{display:none;opacity:0.53;enable-background:new    ;}
	.st1{display:inline;}
	
		.st2{fill:url(#path826_1_);stroke:#CDCDCD;stroke-width:0.2637;stroke-linecap:round;stroke-linejoin:round;stroke-miterlimit:11.3386;}
	.st3{fill:url(#circle828_1_);}
	.st4{fill:#F4F2F3;}
	.st5{opacity:0.409;enable-background:new    ;}
	.st6{fill:#FF5150;}
	.st7{fill:#F1F1F1;}
	.st8{opacity:0.243;enable-background:new    ;}
</style>
<sodipodi:namedview  bordercolor="#666666" borderopacity="1.0" fit-margin-bottom="0.01" fit-margin-left="0.01" fit-margin-right="0.01" fit-margin-top="0.01" id="base" inkscape:current-layer="layer1" inkscape:cx="94.825651" inkscape:cy="88.085169" inkscape:document-units="px" inkscape:guide-bbox="true" inkscape:object-nodes="false" inkscape:object-paths="false" inkscape:pageopacity="0.0" inkscape:pageshadow="2" inkscape:snap-center="false" inkscape:snap-intersection-paths="false" inkscape:snap-object-midpoints="false" inkscape:window-height="1017" inkscape:window-maximized="1" inkscape:window-width="1920" inkscape:window-x="1358" inkscape:window-y="-8" inkscape:zoom="1" pagecolor="#ffffff" showgrid="false" showguides="true">
	</sodipodi:namedview>
<g id="layer1" transform="translate(-318.88562,-180.59501)" inkscape:groupmode="layer" inkscape:label="Capa 1">
	<g id="g2858">
		<g id="path2226" inkscape:connector-curvature="0" class="st0">
			<ellipse class="st1" cx="407.8" cy="276.8" rx="85.5" ry="82.4"/>
		</g>
		
			<linearGradient id="path826_1_" gradientUnits="userSpaceOnUse" x1="1049.187" y1="2493.5286" x2="1049.187" y2="2315.3047" gradientTransform="matrix(0.9965 0 0 0.9965 -637.7149 -2126.5012)">
			<stop  offset="0" style="stop-color:#BDBDBD"/>
			<stop  offset="1" style="stop-color:#FFFFFF"/>
		</linearGradient>
		<path id="path826" inkscape:connector-curvature="0" class="st2" d="M496.6,269.5c0,49-39.8,88.8-88.8,88.8l0,0
			c-49,0-88.8-39.8-88.8-88.8s39.8-88.8,88.8-88.8l0,0C456.9,180.7,496.6,220.5,496.6,269.5L496.6,269.5L496.6,269.5z"/>
		
			<radialGradient id="circle828_1_" cx="975.3" cy="2215.6912" r="82.1254" gradientTransform="matrix(1.0812 0 0 1.0812 -646.3278 -2138.0059)" gradientUnits="userSpaceOnUse">
			<stop  offset="0" style="stop-color:#06C2E7"/>
			<stop  offset="0.25" style="stop-color:#0DB8EC"/>
			<stop  offset="0.5" style="stop-color:#12AEF1"/>
			<stop  offset="0.75" style="stop-color:#1F86F9"/>
			<stop  offset="1" style="stop-color:#107DDD"/>
		</radialGradient>
		<path id="circle828" inkscape:connector-curvature="0" class="st3" d="M489.7,269.5c0,45.2-36.6,81.8-81.8,81.8l0,0
			c-45.2,0-81.8-36.6-81.8-81.8l0,0c0-45.2,36.6-81.8,81.8-81.8l0,0C453,187.7,489.7,224.3,489.7,269.5L489.7,269.5z"/>
		<path id="rect830" inkscape:connector-curvature="0" class="st4" d="M407.8,192c-0.7,0-1.2,0.5-1.2,1.2V207c0,0.7,0.5,1.2,1.2,1.2
			s1.2-0.5,1.2-1.2v-13.8C409,192.5,408.5,192,407.8,192z M400,192.4c-0.1,0-0.2,0-0.2,0c-0.7,0.1-1.1,0.7-1.1,1.3l0.6,5.8
			c0.1,0.7,0.7,1.1,1.3,1.1c0.7-0.1,1.1-0.7,1.1-1.3l-0.6-5.8C401,192.9,400.6,192.5,400,192.4z M415.7,192.5
			c-0.6,0.1-1,0.5-1.1,1.1l-0.6,5.8c-0.1,0.7,0.4,1.2,1.1,1.3s1.2-0.4,1.3-1.1l0.6-5.8c0.1-0.7-0.4-1.2-1.1-1.3
			C415.8,192.4,415.8,192.4,415.7,192.5L415.7,192.5z M392,193.6c-0.1,0-0.2,0-0.2,0c-0.6,0.1-1.1,0.8-0.9,1.4l2.9,13.5
			c0.1,0.6,0.8,1.1,1.4,0.9c0.6-0.1,1.1-0.8,0.9-1.4l-2.9-13.5C393,194,392.5,193.6,392,193.6L392,193.6z M423.7,193.6
			c-0.6,0-1.1,0.4-1.2,0.9l-2.9,13.5c-0.1,0.6,0.3,1.3,0.9,1.4c0.6,0.1,1.3-0.3,1.4-0.9l2.9-13.5c0.1-0.6-0.3-1.3-0.9-1.4
			C423.9,193.6,423.8,193.6,423.7,193.6L423.7,193.6z M384.3,195.8c-0.2,0-0.3,0-0.5,0.1c-0.6,0.2-1,0.9-0.8,1.5l1.8,5.5
			c0.2,0.6,0.9,1,1.5,0.8s1-0.9,0.8-1.5l-1.8-5.5C385.2,196.1,384.8,195.8,384.3,195.8L384.3,195.8z M431.3,195.8
			c-0.5,0-0.9,0.3-1,0.8l-1.8,5.5c-0.2,0.6,0.1,1.3,0.8,1.5c0.6,0.2,1.3-0.1,1.5-0.8l1.8-5.5c0.2-0.6-0.1-1.3-0.8-1.5
			C431.6,195.8,431.5,195.8,431.3,195.8L431.3,195.8z M376.8,198.5c-0.2,0-0.3,0-0.5,0.1c-0.6,0.3-0.9,1-0.6,1.6l5.6,12.6
			c0.3,0.6,1,0.9,1.6,0.6c0.6-0.3,0.9-1,0.6-1.6l-5.6-12.6C377.7,198.8,377.2,198.5,376.8,198.5z M439,198.6c-0.5,0-0.9,0.3-1.1,0.7
			l-5.6,12.6c-0.3,0.6,0,1.3,0.6,1.6s1.3,0,1.6-0.6l5.6-12.6c0.3-0.6,0-1.3-0.6-1.6C439.3,198.6,439.1,198.6,439,198.6z
			 M369.7,202.3c-0.2,0-0.5,0-0.7,0.2c-0.6,0.3-0.8,1.1-0.4,1.6l2.9,5c0.3,0.6,1.1,0.8,1.6,0.4c0.6-0.3,0.8-1.1,0.4-1.6l-2.9-5
			C370.5,202.5,370.1,202.3,369.7,202.3L369.7,202.3z M445.9,202.3c-0.4,0-0.7,0.2-0.9,0.6l-2.9,5c-0.3,0.6-0.1,1.3,0.4,1.6
			c0.6,0.3,1.3,0.1,1.6-0.4l2.9-5c0.3-0.6,0.1-1.3-0.4-1.6C446.3,202.3,446.1,202.2,445.9,202.3L445.9,202.3z M362.9,206.5
			c-0.2,0-0.5,0.1-0.7,0.2c-0.5,0.4-0.7,1.1-0.3,1.7l8.1,11.1c0.4,0.5,1.1,0.7,1.7,0.3c0.5-0.4,0.7-1.1,0.3-1.7l-8.1-11.1
			C363.7,206.7,363.3,206.5,362.9,206.5L362.9,206.5z M452.8,206.6c-0.4,0-0.8,0.2-1,0.5l-8.1,11.1c-0.4,0.5-0.3,1.3,0.3,1.7
			c0.5,0.4,1.3,0.3,1.7-0.3l8.1-11.1c0.4-0.5,0.3-1.3-0.3-1.7C453.2,206.6,453,206.6,452.8,206.6L452.8,206.6z M356.8,211.6
			c-0.3,0-0.6,0.1-0.9,0.3c-0.5,0.4-0.5,1.2-0.1,1.7l3.9,4.3c0.4,0.5,1.2,0.5,1.7,0.1s0.5-1.2,0.1-1.7l-3.9-4.3
			C357.4,211.8,357.1,211.6,356.8,211.6L356.8,211.6z M458.8,211.6c-0.3,0-0.6,0.1-0.8,0.4l-3.9,4.3c-0.4,0.5-0.4,1.2,0.1,1.7
			c0.5,0.4,1.2,0.4,1.7-0.1l3.9-4.3c0.4-0.5,0.4-1.2-0.1-1.7C459.4,211.7,459.1,211.6,458.8,211.6L458.8,211.6z M351,217.2
			c-0.3,0-0.6,0.1-0.8,0.4c-0.4,0.5-0.4,1.2,0.1,1.7l10.2,9.2c0.5,0.4,1.2,0.4,1.7-0.1c0.4-0.5,0.4-1.2-0.1-1.7l-10.2-9.2
			C351.6,217.3,351.3,217.2,351,217.2L351,217.2z M464.7,217.3c-0.3,0-0.6,0.1-0.9,0.3l-10.2,9.2c-0.5,0.4-0.5,1.2-0.1,1.7
			s1.2,0.5,1.7,0.1l10.2-9.2c0.5-0.4,0.5-1.2,0.1-1.7C465.3,217.4,465,217.3,464.7,217.3z M346.1,223.5c-0.4,0-0.8,0.2-1,0.5
			c-0.4,0.5-0.3,1.3,0.3,1.7l4.7,3.4c0.5,0.4,1.3,0.3,1.7-0.3c0.4-0.5,0.3-1.3-0.3-1.7l-4.7-3.4
			C346.6,223.6,346.4,223.5,346.1,223.5L346.1,223.5z M469.5,223.5c-0.2,0-0.5,0.1-0.7,0.2l-4.7,3.4c-0.5,0.4-0.7,1.1-0.3,1.7
			c0.4,0.5,1.1,0.7,1.7,0.3l4.7-3.4c0.5-0.4,0.7-1.1,0.3-1.7C470.3,223.7,469.9,223.5,469.5,223.5L469.5,223.5z M341.6,230.1
			c-0.4,0-0.7,0.2-0.9,0.6c-0.3,0.6-0.1,1.3,0.4,1.6l11.9,6.9c0.6,0.3,1.3,0.1,1.6-0.4c0.3-0.6,0.1-1.3-0.4-1.6l-11.9-6.9
			C342.1,230.2,341.8,230.1,341.6,230.1L341.6,230.1z M474,230.1c-0.2,0-0.5,0-0.7,0.2l-11.9,6.9c-0.6,0.3-0.8,1.1-0.4,1.6
			c0.3,0.6,1.1,0.8,1.6,0.4l11.9-6.9c0.6-0.3,0.8-1.1,0.4-1.6C474.8,230.4,474.4,230.2,474,230.1L474,230.1z M338.2,237.2
			c-0.5,0-0.9,0.3-1.1,0.7c-0.3,0.6,0,1.3,0.6,1.6l5.3,2.4c0.6,0.3,1.3,0,1.6-0.6c0.3-0.6,0-1.3-0.6-1.6l-5.3-2.4
			C338.5,237.3,338.3,237.3,338.2,237.2z M477.5,237.3c-0.2,0-0.3,0-0.5,0.1l-5.3,2.4c-0.6,0.3-0.9,1-0.6,1.6s1,0.9,1.6,0.6l5.3-2.4
			c0.6-0.3,0.9-1,0.6-1.6C478.4,237.6,478,237.3,477.5,237.3L477.5,237.3z M335.1,244.7c-0.5,0-0.9,0.3-1,0.8
			c-0.2,0.6,0.1,1.3,0.8,1.5l13.1,4.3c0.6,0.2,1.3-0.1,1.5-0.8c0.2-0.6-0.1-1.3-0.8-1.5l-13.1-4.3
			C335.4,244.7,335.2,244.7,335.1,244.7L335.1,244.7z M480.6,244.7c-0.2,0-0.3,0-0.5,0.1L467,249c-0.6,0.2-1,0.9-0.8,1.5
			s0.9,1,1.5,0.8l13.1-4.3c0.6-0.2,1-0.9,0.8-1.5C481.4,245.1,481,244.8,480.6,244.7L480.6,244.7z M333.2,252.5
			c-0.6,0-1.1,0.4-1.2,0.9c-0.1,0.6,0.3,1.3,0.9,1.4l5.7,1.2c0.6,0.1,1.3-0.3,1.4-0.9c0.1-0.6-0.3-1.3-0.9-1.4l-5.7-1.2
			C333.3,252.5,333.3,252.5,333.2,252.5L333.2,252.5z M482.4,252.5c-0.1,0-0.2,0-0.2,0l-5.7,1.2c-0.6,0.1-1.1,0.8-0.9,1.4
			c0.1,0.6,0.8,1.1,1.4,0.9l5.7-1.2c0.6-0.1,1.1-0.8,0.9-1.4C483.5,252.9,483,252.5,482.4,252.5L482.4,252.5z M331.7,260.3
			c-0.6,0.1-1,0.5-1.1,1.1c-0.1,0.7,0.4,1.2,1.1,1.3l13.7,1.4c0.7,0.1,1.2-0.4,1.3-1.1c0.1-0.7-0.4-1.2-1.1-1.3l-13.7-1.4
			C331.9,260.3,331.8,260.3,331.7,260.3L331.7,260.3z M483.9,260.4c-0.1,0-0.2,0-0.2,0l-13.7,1.4c-0.7,0.1-1.1,0.7-1.1,1.3
			c0.1,0.7,0.7,1.1,1.3,1.1l13.7-1.4c0.7-0.1,1.1-0.7,1.1-1.3C484.9,260.9,484.4,260.5,483.9,260.4L483.9,260.4z M331.5,268.3
			c-0.7,0-1.2,0.5-1.2,1.2s0.5,1.2,1.2,1.2h5.8c0.7,0,1.2-0.5,1.2-1.2s-0.5-1.2-1.2-1.2H331.5z M478.3,268.3c-0.7,0-1.2,0.5-1.2,1.2
			s0.5,1.2,1.2,1.2h5.8c0.7,0,1.2-0.5,1.2-1.2s-0.5-1.2-1.2-1.2H478.3z M345.7,274.8c-0.1,0-0.2,0-0.2,0l-13.7,1.4
			c-0.7,0.1-1.1,0.7-1.1,1.3s0.7,1.1,1.3,1.1l13.7-1.4c0.7-0.1,1.1-0.7,1.1-1.3C346.7,275.3,346.2,274.9,345.7,274.8L345.7,274.8z
			 M470,274.9c-0.6,0.1-1,0.5-1.1,1.1c-0.1,0.7,0.4,1.2,1.1,1.3l13.7,1.4c0.7,0.1,1.2-0.4,1.3-1.1c0.1-0.7-0.4-1.2-1.1-1.3
			l-13.7-1.4C470.1,274.9,470,274.9,470,274.9L470,274.9z M338.8,283c-0.1,0-0.2,0-0.2,0l-5.7,1.2c-0.6,0.1-1.1,0.8-0.9,1.4
			c0.1,0.6,0.8,1.1,1.4,0.9l5.7-1.2c0.6-0.1,1.1-0.8,0.9-1.4C339.9,283.4,339.4,283,338.8,283L338.8,283z M476.8,283
			c-0.6,0-1.1,0.4-1.2,0.9c-0.1,0.6,0.3,1.3,0.9,1.4l5.7,1.2c0.6,0.1,1.3-0.3,1.4-0.9s-0.3-1.3-0.9-1.4L477,283
			C477,283,476.9,283,476.8,283L476.8,283z M348.4,287.7c-0.2,0-0.3,0-0.5,0.1l-13.1,4.3c-0.6,0.2-1,0.9-0.8,1.5s0.9,1,1.5,0.8
			l13.1-4.3c0.6-0.2,1-0.9,0.8-1.5C349.2,288,348.8,287.7,348.4,287.7L348.4,287.7z M467.2,287.7c-0.5,0-0.9,0.3-1,0.8
			c-0.2,0.6,0.1,1.3,0.8,1.5l13.1,4.3c0.6,0.2,1.3-0.1,1.5-0.8c0.2-0.6-0.1-1.3-0.8-1.5l-13.1-4.3
			C467.6,287.7,467.4,287.7,467.2,287.7L467.2,287.7z M343.4,297c-0.2,0-0.3,0-0.5,0.1l-5.3,2.4c-0.6,0.3-0.9,1-0.6,1.6
			s1,0.9,1.6,0.6l5.3-2.4c0.6-0.3,0.9-1,0.6-1.6C344.3,297.3,343.8,297,343.4,297L343.4,297z M472.2,297.1c-0.5,0-0.9,0.3-1.1,0.7
			c-0.3,0.6,0,1.3,0.6,1.6l5.3,2.4c0.6,0.3,1.3,0,1.6-0.6s0-1.3-0.6-1.6l-5.3-2.4C472.5,297.1,472.4,297.1,472.2,297.1L472.2,297.1z
			 M353.7,299.6c-0.2,0-0.5,0-0.7,0.2l-11.9,6.9c-0.6,0.3-0.8,1.1-0.4,1.6s1.1,0.8,1.6,0.4l11.9-6.9c0.6-0.3,0.8-1.1,0.4-1.6
			C354.4,299.9,354.1,299.7,353.7,299.6L353.7,299.6z M462,299.6c-0.4,0-0.7,0.2-1,0.6c-0.3,0.6-0.1,1.3,0.4,1.6l11.9,6.9
			c0.6,0.3,1.3,0.1,1.6-0.4c0.3-0.6,0.1-1.3-0.4-1.6l-11.9-6.9C462.4,299.7,462.2,299.6,462,299.6L462,299.6z M350.7,309.7
			c-0.2,0-0.5,0.1-0.7,0.2l-4.7,3.4c-0.5,0.4-0.7,1.1-0.3,1.7c0.4,0.5,1.1,0.7,1.7,0.3l4.7-3.4c0.5-0.4,0.7-1.1,0.3-1.7
			C351.5,309.9,351.1,309.7,350.7,309.7L350.7,309.7z M464.9,309.8c-0.4,0-0.8,0.2-1,0.5c-0.4,0.5-0.3,1.3,0.3,1.7l4.7,3.4
			c0.5,0.4,1.3,0.3,1.7-0.3c0.4-0.5,0.3-1.3-0.3-1.7l-4.7-3.4C465.4,309.9,465.1,309.8,464.9,309.8L464.9,309.8z M361.3,310.2
			c-0.3,0-0.6,0.1-0.9,0.3l-10.2,9.2c-0.5,0.4-0.5,1.2-0.1,1.7s1.2,0.5,1.7,0.1l10.2-9.2c0.5-0.4,0.5-1.2,0.1-1.7
			C361.9,310.3,361.6,310.2,361.3,310.2z M454.3,310.2c-0.3,0-0.6,0.1-0.8,0.4c-0.4,0.5-0.4,1.2,0.1,1.7l10.2,9.2
			c0.5,0.4,1.2,0.4,1.7-0.1c0.4-0.5,0.4-1.2-0.1-1.7l-10.2-9.2C454.9,310.3,454.6,310.2,454.3,310.2L454.3,310.2z M371,319
			c-0.4,0-0.8,0.2-1,0.5l-8.1,11.1c-0.4,0.5-0.3,1.3,0.3,1.7c0.5,0.4,1.3,0.3,1.7-0.3l8.1-11.1c0.4-0.5,0.3-1.3-0.3-1.7
			C371.5,319,371.3,319,371,319z M444.5,319c-0.2,0-0.5,0.1-0.7,0.2c-0.5,0.4-0.7,1.1-0.3,1.7l8.1,11.1c0.4,0.5,1.1,0.7,1.7,0.3
			c0.5-0.4,0.7-1.1,0.3-1.7l-8.1-11.1C445.3,319.2,444.9,319,444.5,319L444.5,319z M360.6,320.7c-0.3,0-0.6,0.1-0.8,0.4l-3.9,4.3
			c-0.4,0.5-0.4,1.2,0.1,1.7c0.5,0.4,1.2,0.4,1.7-0.1l3.9-4.3c0.4-0.5,0.4-1.2-0.1-1.7C361.2,320.8,360.9,320.7,360.6,320.7
			L360.6,320.7z M455.1,320.7c-0.3,0-0.6,0.1-0.9,0.3c-0.5,0.4-0.5,1.2-0.1,1.7l3.9,4.3c0.4,0.5,1.2,0.5,1.7,0.1s0.5-1.2,0.1-1.7
			l-3.9-4.3C455.7,320.9,455.4,320.8,455.1,320.7L455.1,320.7z M382.3,325.5c-0.5,0-0.9,0.3-1.1,0.7l-5.6,12.6
			c-0.3,0.6,0,1.3,0.6,1.6c0.6,0.3,1.3,0,1.6-0.6l5.6-12.6c0.3-0.6,0-1.3-0.6-1.6C382.6,325.5,382.5,325.5,382.3,325.5L382.3,325.5z
			 M433.2,325.5c-0.2,0-0.3,0-0.5,0.1c-0.6,0.3-0.9,1-0.6,1.6l5.6,12.6c0.3,0.6,1,0.9,1.6,0.6s0.9-1,0.6-1.6l-5.6-12.6
			C434.1,325.8,433.7,325.5,433.2,325.5L433.2,325.5z M372.5,329.4c-0.4,0-0.7,0.2-0.9,0.6l-2.9,5c-0.3,0.6-0.1,1.3,0.4,1.6
			c0.6,0.3,1.3,0.1,1.6-0.4l2.9-5c0.3-0.6,0.1-1.3-0.4-1.6C372.9,329.4,372.7,329.4,372.5,329.4L372.5,329.4z M443.2,329.4
			c-0.2,0-0.5,0-0.7,0.2c-0.6,0.3-0.8,1.1-0.4,1.6l2.9,5c0.3,0.6,1.1,0.8,1.6,0.4c0.6-0.3,0.8-1.1,0.4-1.6l-2.9-5
			C443.9,329.6,443.5,329.4,443.2,329.4L443.2,329.4z M394.8,329.6c-0.6,0-1.1,0.4-1.2,0.9l-2.9,13.5c-0.1,0.6,0.3,1.3,0.9,1.4
			s1.3-0.3,1.4-0.9l3-13.5c0.1-0.6-0.3-1.3-0.9-1.4C395,329.6,394.9,329.6,394.8,329.6L394.8,329.6z M420.8,329.6
			c-0.1,0-0.2,0-0.2,0c-0.6,0.1-1.1,0.8-0.9,1.4l2.9,13.5c0.1,0.6,0.8,1.1,1.4,0.9c0.6-0.1,1.1-0.8,0.9-1.4l-2.9-13.5
			C421.8,330,421.3,329.6,420.8,329.6L420.8,329.6z M407.8,330.9c-0.7,0-1.2,0.5-1.2,1.2v13.8c0,0.7,0.5,1.2,1.2,1.2
			s1.2-0.5,1.2-1.2v-13.8C409,331.5,408.5,330.9,407.8,330.9z M385.9,335.4c-0.5,0-0.9,0.3-1,0.8l-1.8,5.5c-0.2,0.6,0.1,1.3,0.8,1.5
			c0.6,0.2,1.3-0.1,1.5-0.8l1.8-5.5c0.2-0.6-0.1-1.3-0.8-1.5C386.2,335.4,386.1,335.4,385.9,335.4L385.9,335.4z M429.7,335.4
			c-0.2,0-0.3,0-0.5,0.1c-0.6,0.2-1,0.9-0.8,1.5l1.8,5.5c0.2,0.6,0.9,1,1.5,0.8s1-0.9,0.8-1.5l-1.8-5.5
			C430.6,335.7,430.2,335.4,429.7,335.4L429.7,335.4z M400.3,338.5c-0.6,0.1-1,0.5-1.1,1.1l-0.6,5.8c-0.1,0.7,0.4,1.2,1.1,1.3
			c0.7,0.1,1.2-0.4,1.3-1.1l0.6-5.8c0.1-0.7-0.4-1.2-1.1-1.3C400.5,338.5,400.4,338.5,400.3,338.5z M415.3,338.5c-0.1,0-0.2,0-0.2,0
			c-0.7,0.1-1.1,0.7-1.1,1.3l0.6,5.8c0.1,0.7,0.7,1.1,1.3,1.1c0.7-0.1,1.1-0.7,1.1-1.3l-0.6-5.8C416.3,339,415.8,338.5,415.3,338.5
			L415.3,338.5z"/>
		<g id="path2150" inkscape:connector-curvature="0" sodipodi:nodetypes="ccccc" class="st5">
			<polygon points="463.7,221.8 398.5,259.7 357.2,324.7 417.6,280 			"/>
		</g>
		<g id="g2847">
			
				<path id="path2096" inkscape:flatsided="true" inkscape:randomized="0" inkscape:rounded="1.35308e-016" inkscape:transform-center-y="-13.18648" sodipodi:arg1="1.3089969" sodipodi:arg2="2.3561945" sodipodi:cx="124.97523" sodipodi:cy="142.65184" sodipodi:r1="18.791006" sodipodi:r2="9.395503" sodipodi:sides="3" sodipodi:type="star" class="st6" d="
				M417.2,279.3l-18.7-19.6l66.4-44.7L417.2,279.3z"/>
			
				<path id="path2099" inkscape:flatsided="true" inkscape:randomized="0" inkscape:rounded="1.35308e-016" inkscape:transform-center-y="13.186483" sodipodi:arg1="1.3089969" sodipodi:arg2="2.3561945" sodipodi:cx="124.97523" sodipodi:cy="142.65184" sodipodi:r1="18.791006" sodipodi:r2="9.395503" sodipodi:sides="3" sodipodi:type="star" class="st7" d="
				M417.2,279.3l-18.7-19.6L350.8,324L417.2,279.3z"/>
			<path id="path2112" inkscape:connector-curvature="0" class="st8" d="M350.8,324l66.4-44.7l47.7-64.2L350.8,324z"/>
		</g>
	</g>
</g>
</svg>
