<svg xmlns="http://www.w3.org/2000/svg" viewBox="0 0 16 16" style="enable-background:new 0 0 16 16" xml:space="preserve"><path d="M0 15c0 .6.4 1 1 1h14c.6 0 1-.4 1-1V3.6c0-.3-.1-.5-.3-.7L13.1.3c-.2-.2-.4-.3-.7-.3H1C.4 0 0 .4 0 1v14zM12 1.7c-.4 0-.8.4-.8.8V4c0 .6-.4 1-1 1H9c-.6 0-1-.4-1-1V2.7c0-.6-.4-1-1-1H4.2c-.6 0-1 .4-1 1v2.9c0 .6.4 1 1 1h7.6c.6 0 1-.4 1-1V2.5c0-.4-.4-.8-.8-.8zM3.2 9.9c0-.6.4-1 1-1h7.6c.6 0 1 .4 1 1v2.9c0 .6-.4 1-1 1H4.2c-.6 0-1-.4-1-1V9.9z" style="fill-rule:evenodd;clip-rule:evenodd;fill:currentColor"/></svg>