<svg xmlns="http://www.w3.org/2000/svg" viewBox="0 0 18 18" xml:space="preserve">
    <path
        d="m17.8 11.4-1.9-1.5c0-.3.1-.6.1-.9 0-.3 0-.6-.1-.9l2-1.5c.2-.1.2-.4.1-.6l-1.9-3c-.1-.2-.4-.3-.6-.2l-2.3.9c-.5-.4-1-.7-1.6-.9L11.3.4c0-.2-.2-.4-.5-.4H7.2c-.3 0-.5.2-.5.4l-.4 2.4c-.5.2-1 .5-1.5.8l-2.3-.9c-.2 0-.5.1-.6.3L.1 6.1c-.1.2-.1.4.1.5l2 1.5c-.2.6-.2 1.2-.1 1.8l-2 1.5c-.2.1-.2.4-.1.6l1.9 3c.1.2.4.3.6.2l2.3-.9c.5.4 1 .7 1.6.9l.3 2.4c0 .2.2.4.5.4h3.7c.2 0 .4-.2.5-.4l.3-2.4c.6-.2 1.1-.5 1.6-.9l2.3.9c.2.1.5 0 .6-.2l1.9-3.1c0-.2-.1-.4-.3-.5zm-8.8 1c-1.9 0-3.4-1.5-3.5-3.4.1-1.9 1.7-3.4 3.6-3.4 1.8.1 3.3 1.5 3.4 3.4-.1 1.9-1.6 3.4-3.5 3.4z"
        fill="currentColor" />
</svg>