<svg id="settings_black_24dp" xmlns="http://www.w3.org/2000/svg" width="24" height="24" viewBox="0 0 24 24">
  <path id="Path_3530" data-name="Path 3530" d="M0,0H24V24H0Z" fill="none"/>
  <path id="Path_3531" data-name="Path 3531" d="M18.544,12.281A6.453,6.453,0,0,0,18.6,11.4a5.27,5.27,0,0,0-.067-.881L20.49,9.038a.451.451,0,0,0,.116-.572L18.756,5.353a.477.477,0,0,0-.569-.206l-2.3.9a6.857,6.857,0,0,0-1.561-.881l-.347-2.381a.463.463,0,0,0-.463-.384h-3.7a.453.453,0,0,0-.453.384L9.012,5.166a7.008,7.008,0,0,0-1.561.881l-2.3-.9a.466.466,0,0,0-.569.206L2.737,8.466a.419.419,0,0,0,.116.572l1.957,1.481a5.076,5.076,0,0,0-.019,1.762L2.834,13.762a.451.451,0,0,0-.116.572l1.851,3.113a.477.477,0,0,0,.569.206l2.3-.9A6.857,6.857,0,0,0,9,17.634l.347,2.381a.47.47,0,0,0,.463.384h3.7a.446.446,0,0,0,.453-.384l.347-2.381a6.657,6.657,0,0,0,1.561-.881l2.3.9a.466.466,0,0,0,.569-.206L20.6,14.334a.426.426,0,0,0-.116-.572Zm-6.882,2.494A3.433,3.433,0,0,1,8.192,11.4a3.471,3.471,0,0,1,6.939,0A3.433,3.433,0,0,1,11.662,14.775Z" transform="translate(0.338 0.6)" fill="currentColor"/>
</svg>
