<svg xmlns="http://www.w3.org/2000/svg" viewBox="0 0 20 17" xml:space="preserve">
    <path
        d="M20 14.6V1c0-.5-.3-.9-.8-1H.8C.3.1 0 .5 0 1v15c0 .5.3.9.8 1h18.4c.5-.1.8-.5.8-1V14.6zM18.8.7c.1-.1.3-.1.4 0 .1.1.1.2.1.3 0 .1 0 .2-.1.3-.1.1-.1.1-.2.1s-.2 0-.2-.1c-.1-.1-.1-.2-.1-.3 0-.1.1-.2.1-.3zM9.1.6H11c.2.1.3.3.3.5 0 .1-.1.2-.3.3H9.1c-.2-.1-.4-.3-.3-.5 0-.2.1-.3.3-.3zm2 15.2c0 .2-.1.4-.3.4H9.2c-.2 0-.3-.2-.3-.4v-.2c0-.2.1-.4.3-.4h1.6c.2 0 .3.2.3.4v.2zm8.3-1.3H.6V1.9h18.7l.1 12.6z" />
</svg>