<svg id="Component_148_1" data-name="Component 148 – 1" xmlns="http://www.w3.org/2000/svg" width="24" height="24"
  viewBox="0 0 24 24">
  <rect id="Rectangle_918" data-name="Rectangle 918" width="24" height="24" fill="none" />
  <g id="trash" transform="translate(-42 5)">
    <path id="Path_1942" data-name="Path 1942"
      d="M58.846,1.875H56.308V1.406A1.4,1.4,0,0,0,54.923,0H53.077a1.4,1.4,0,0,0-1.385,1.406v.469H49.154A1.163,1.163,0,0,0,48,3.047v.938a.465.465,0,0,0,.462.469H59.538A.465.465,0,0,0,60,3.984V3.047A1.163,1.163,0,0,0,58.846,1.875Zm-6.231-.469a.466.466,0,0,1,.462-.469h1.846a.466.466,0,0,1,.462.469v.469H52.615Z"
      fill="currentColor" />
    <path id="Path_1943" data-name="Path 1943"
      d="M73.508,184a.145.145,0,0,0-.144.153l.381,8.116a1.393,1.393,0,0,0,1.383,1.339h7.009a1.393,1.393,0,0,0,1.383-1.339l.381-8.116a.145.145,0,0,0-.144-.153Zm6.97,1.172a.462.462,0,1,1,.923,0v6.094a.462.462,0,1,1-.923,0Zm-2.308,0a.462.462,0,1,1,.923,0v6.094a.462.462,0,1,1-.923,0Zm-2.308,0a.462.462,0,1,1,.923,0v6.094a.462.462,0,1,1-.923,0Z"
      transform="translate(-24.633 -178.609)" fill="currentColor" />
  </g>
</svg>