<svg xmlns="http://www.w3.org/2000/svg" width="80" height="80" viewBox="0 0 80 80">
  <g id="Group_2595" data-name="Group 2595" transform="translate(-653 -238)">
    <g id="Group_2585" data-name="Group 2585" transform="translate(15776.848 7714.675)">
      <g id="Group_502" data-name="Group 502" transform="translate(-15123.848 -7476.675)">
        <circle id="Ellipse_1" data-name="Ellipse 1" cx="40" cy="40" r="40" transform="translate(0 0)" fill="#d30000" opacity="0.1"/>
      </g>
    </g>
    <g id="Group_1049" data-name="Group 1049" transform="translate(-607 -116)">
      <rect id="Rectangle_918" data-name="Rectangle 918" width="38" height="38" transform="translate(1281 375)" fill="none"/>
      <g id="trash" transform="translate(1285 375)">
        <path id="Path_1942" data-name="Path 1942" d="M75.115,4.75H68.769V3.563A3.513,3.513,0,0,0,65.308,0H60.692a3.513,3.513,0,0,0-3.462,3.563V4.75H50.885A2.928,2.928,0,0,0,48,7.719v2.375a1.171,1.171,0,0,0,1.154,1.188H76.846A1.171,1.171,0,0,0,78,10.094V7.719A2.928,2.928,0,0,0,75.115,4.75ZM59.538,3.563a1.173,1.173,0,0,1,1.154-1.187h4.615a1.173,1.173,0,0,1,1.154,1.188V4.75H59.538Z" transform="translate(-48)" fill="#d30000"/>
        <path id="Path_1943" data-name="Path 1943" d="M73.725,184a.366.366,0,0,0-.36.389l.952,20.562a3.5,3.5,0,0,0,3.457,3.393H95.3a3.5,3.5,0,0,0,3.457-3.393l.952-20.562a.366.366,0,0,0-.36-.389Zm17.426,2.969a1.154,1.154,0,1,1,2.308,0v15.438a1.154,1.154,0,1,1-2.308,0Zm-5.769,0a1.154,1.154,0,1,1,2.308,0v15.438a1.154,1.154,0,1,1-2.308,0Zm-5.769,0a1.154,1.154,0,1,1,2.308,0v15.438a1.154,1.154,0,1,1-2.308,0Z" transform="translate(-71.535 -170.344)" fill="#d30000"/>
      </g>
    </g>
  </g>
</svg>
