<svg xmlns="http://www.w3.org/2000/svg" viewBox="0 0 12 15" xml:space="preserve">
    <path fill="currentColor"
        d="M10.8 1.9H8.3v-.5C8.3.6 7.7 0 6.9 0H5.1c-.8 0-1.4.6-1.4 1.4v.5H1.2C.5 1.9 0 2.4 0 3v1c0 .3.2.5.5.5h11.1c.2 0 .4-.3.4-.5V3c0-.6-.5-1.1-1.2-1.1zm-3.4 0H4.6v-.5c0-.3.2-.5.5-.5h1.8c.3 0 .5.2.5.5v.5zM11.1 5.4H.8c-.1 0-.1.1-.1.1l.4 8.1c0 .7.6 1.3 1.4 1.3h7c.7 0 1.4-.6 1.4-1.3l.4-8.1s-.1-.1-.2-.1zM4.2 6.6v6.1c0 .3-.2.5-.4.5s-.6-.2-.6-.5V6.6c0-.3.2-.5.4-.5.3 0 .5.2.6.5 0-.1 0-.1 0 0zm2.3 0v6.1c0 .3-.2.5-.4.5s-.6-.2-.6-.5V6.6c0-.3.2-.5.4-.5s.5.2.6.5c0-.1 0-.1 0 0zm2.3 0v6.1c0 .3-.2.5-.4.5-.3 0-.5-.2-.5-.4V6.6c0-.3.2-.5.4-.5s.5.2.5.5c0-.1 0-.1 0 0z" />
</svg>