<svg xmlns="http://www.w3.org/2000/svg" width="12" height="15" viewBox="0 0 12 15">
  <path id="unlock" d="M17.25,8.567H10.2V6.836a2.385,2.385,0,0,1,.75-1.731,2.607,2.607,0,0,1,3.6,0,2.385,2.385,0,0,1,.75,1.731h0a.525.525,0,0,0,1.05,0h0a3.6,3.6,0,0,0-7.2.047V8.567h-.9a1.476,1.476,0,0,0-1.5,1.442v6.923a1.476,1.476,0,0,0,1.5,1.442h9a1.476,1.476,0,0,0,1.5-1.442V10.009A1.476,1.476,0,0,0,17.25,8.567Zm-3.975,4.5v2.481a.526.526,0,0,1-.5.519.517.517,0,0,1-.551-.5v-2.5a1.147,1.147,0,0,1-.671-1.143,1.2,1.2,0,0,1,2.4.1A1.148,1.148,0,0,1,13.275,13.067Z" transform="translate(-6.75 -3.374)" fill="#505d6e"/>
</svg>
