<svg data-name="Component 62 – 4" xmlns="http://www.w3.org/2000/svg" width="24" height="24"  viewBox="0 0 24 24">
    <path data-name="Rectangle 920" style="fill:none" d="M0 0h24v24H0z"/>
    <g data-name="eye (1)">
        <path data-name="Path 1941" d="M8 98.725a10 10 0 0 0-7.875 4.363.627.627 0 0 0 0 .752A9.991 9.991 0 0 0 8 108.206a10 10 0 0 0 7.875-4.363.627.627 0 0 0 0-.752A9.991 9.991 0 0 0 8 98.725zm.219 8.079a3.346 3.346 0 1 1 3.139-3.12 3.357 3.357 0 0 1-3.139 3.116zm-.1-1.542a1.8 1.8 0 1 1 1.691-1.682 1.8 1.8 0 0 1-1.692 1.682z" transform="translate(4 -91.466)" style="fill:#505d6e"/>
    </g>
</svg>
