<svg xmlns="http://www.w3.org/2000/svg" width="24" height="24" viewBox="0 0 24 24">
  <g id="Group_2326" data-name="Group 2326" transform="translate(-2022 -5386)">
    <path id="Path_995" data-name="Path 995" d="M51.57,236.959h0l-6.527-6.527a1.473,1.473,0,0,0-2.083,0l-6.524,6.523-.007.006a1.472,1.472,0,0,0,.98,2.509.356.356,0,0,0,.045,0h.26v4.8A1.726,1.726,0,0,0,39.438,246h2.554a.469.469,0,0,0,.469-.468v-3.766a.787.787,0,0,1,.787-.787h1.506a.787.787,0,0,1,.787.787v3.766a.469.469,0,0,0,.469.468h2.554a1.726,1.726,0,0,0,1.724-1.724v-4.8h.241a1.473,1.473,0,0,0,1.042-2.514Z" transform="translate(1990 5160)" fill="currentColor"/>
    <rect id="Rectangle_967" data-name="Rectangle 967" width="24" height="24" transform="translate(2022 5386)" fill="none"/>
  </g>
</svg>
